<svg width="43" height="43" viewBox="0 0 43 43" fill="none" xmlns="http://www.w3.org/2000/svg">
<path d="M33.8796 32.501L33.6423 41.1339H32.1649L31.2206 31.5142L33.8796 32.501Z" fill="#FFDCB9"/>
<path d="M32.1549 41.0365C32.1549 41.0365 31.6577 41.481 30.6397 41.807C30.4149 41.879 30.259 42.3229 31.4656 42.1333C32.6721 41.9437 33.4629 41.6002 33.642 41.1341C33.8211 40.6679 32.1549 41.0365 32.1549 41.0365Z" fill="#FFDCB9"/>
<path d="M33.6439 41.0866C33.6439 41.0866 33.7736 41.0414 33.801 41.1734C33.8285 41.3055 33.8743 42.5763 33.801 42.5928C33.7276 42.6094 33.5901 42.6836 33.5351 42.4856C33.4802 42.2875 33.5443 42.04 33.4251 42.04C33.306 42.04 32.6826 42.7132 31.6283 42.7874C30.6874 42.8537 29.7215 42.8322 29.5748 42.7167C29.4281 42.6012 29.4614 42.445 29.8256 42.1992C30.229 41.9269 31.2895 41.5645 31.2895 41.5645C31.2895 41.5645 31.2068 42.3052 32.2791 41.8667C33.0352 41.5575 33.3872 41.3754 33.6439 41.0866Z" fill="#4D4D4F"/>
<path d="M35.4492 32.501L35.6866 41.1339H37.1639L38.1083 31.5142L35.4492 32.501Z" fill="#FFDCB9"/>
<path d="M37.1736 41.0365C37.1736 41.0365 37.6709 41.4809 38.6888 41.807C38.9136 41.879 39.0696 42.3229 37.8631 42.1333C36.6566 41.9436 35.8658 41.6001 35.6867 41.1341C35.5076 40.668 37.1736 41.0365 37.1736 41.0365Z" fill="#FFDCB9"/>
<path d="M35.6851 41.0866C35.6851 41.0866 35.5554 41.0414 35.528 41.1734C35.5005 41.3055 35.4547 42.5763 35.528 42.5928C35.6014 42.6094 35.7389 42.6836 35.7938 42.4856C35.8488 42.2875 35.7847 42.04 35.9039 42.04C36.023 42.04 36.6464 42.7132 37.7007 42.7874C38.6416 42.8537 39.6075 42.8322 39.7542 42.7167C39.9008 42.6012 39.8674 42.445 39.5032 42.1992C39.0999 41.9269 38.0395 41.5645 38.0395 41.5645C38.0395 41.5645 38.1222 42.3052 37.0499 41.8667C36.2939 41.5575 35.9418 41.3754 35.6851 41.0866Z" fill="#4D4D4F"/>
<path d="M42.6139 23.6743C42.6139 23.6743 43.1027 25.046 42.9805 25.6743C42.8582 26.3026 41.916 26.9727 41.6717 26.1246C41.4274 25.2765 41.2064 23.8 41.2064 23.8L42.6139 23.6743Z" fill="#FFDCB9"/>
<path d="M34.009 3.20868C34.009 3.20868 33.2229 2.93581 32.4945 3.20868C31.7661 3.48154 30.8153 4.32741 30.5026 6.42832C30.1898 8.52923 29.9171 9.23866 29.7048 9.92083C29.4927 10.603 27.7391 14.3502 31.0179 14.8595C33.5769 15.2568 33.8271 12.7753 33.7361 10.243C33.6453 7.71075 34.009 3.20868 34.009 3.20868Z" fill="#422C19"/>
<path d="M35.8303 10.3176L34.498 10.5401L33.1658 10.3176C33.1658 10.3176 32.7648 11.3371 32.2831 12.0172C32.2831 12.0172 32.4706 14.8223 34.4982 14.2197C36.5256 14.8223 36.7131 12.0172 36.7131 12.0172C36.2313 11.337 35.8303 10.3176 35.8303 10.3176Z" fill="#FFDCB9"/>
<path d="M37.6945 11.9116C37.6945 11.9116 36.5134 13.8763 34.7391 13.7915C32.9648 13.8763 31.7838 11.9116 31.7838 11.9116L31.6616 21.8327H37.8167L37.6945 11.9116Z" fill="#FF5050"/>
<path d="M39.8691 21.2583H34.7457H34.579H29.4556C29.4556 21.2583 29.2605 23.6789 29.4556 26.0213C29.6507 28.3636 31.0543 33.4087 31.0543 33.4087H34.579H34.7457H38.2704C38.2704 33.4087 39.6738 28.3636 39.8691 26.0213C40.0643 23.6789 39.8691 21.2583 39.8691 21.2583Z" fill="#4D4D4F"/>
<path d="M36.0667 11.2058L36.5358 20.8321V20.8332L36.9505 29.3221C36.9505 29.3221 40.6277 29.942 42.1214 28.2874C42.1214 28.2874 40.2991 16.9757 39.3759 14.011C39.023 12.8777 38.5727 11.7101 36.3661 11.2605C36.2655 11.2386 36.166 11.2211 36.0667 11.2058Z" fill="white"/>
<path d="M36.0667 11.2058L36.5358 20.8321C36.565 20.7797 38.4151 17.3472 38.3727 16.5658C38.329 15.7767 36.9858 14.1036 36.9858 14.1036C36.9858 14.1036 37.4113 13.488 37.7095 13.0362C37.9338 12.6979 36.8984 11.7254 36.3661 11.2605C36.2655 11.2386 36.166 11.2211 36.0667 11.2058Z" fill="#E2E5E5"/>
<path d="M38.0045 23.9636C37.9479 23.9636 37.8961 23.9295 37.8808 23.8779C37.8626 23.8163 37.9032 23.7531 37.9716 23.7368C38.1957 23.6829 40.4371 23.2844 40.5324 23.2674C40.6015 23.2548 40.6691 23.2956 40.683 23.3582C40.6966 23.4208 40.6515 23.4814 40.582 23.4938C40.5587 23.4978 38.2537 23.9077 38.0377 23.9595C38.0265 23.9623 38.0155 23.9636 38.0045 23.9636Z" fill="#E2E5E5"/>
<path d="M36.8376 11.8037C36.8376 11.8037 38.7371 11.6013 40.192 14.4492C41.6469 17.2972 42.9805 23.8482 42.9805 23.8482L41.3898 24.4854L36.8376 11.8037Z" fill="white"/>
<path d="M41.8617 24.2962L41.3898 24.4855C41.3898 24.4855 41.3898 24.4832 41.3885 24.4811C41.3885 24.48 41.3873 24.4778 41.3873 24.4756C41.3103 24.173 39.6598 17.674 39.2758 16.5999C39.095 16.0925 40.9767 20.1096 41.8617 24.2962Z" fill="#E2E5E5"/>
<path d="M33.8572 2.85404C34.561 2.59559 36.6837 2.90856 37.8013 4.35469C38.919 5.80081 39.8639 8.1008 40.08 9.48147C40.62 12.9313 39.7373 15.074 38.525 15.949C37.3125 16.8241 33.9682 15.9396 35.587 12.7858C36.5458 10.918 35.7433 10.0573 35.7433 10.0573C35.7433 10.0573 31.5536 3.6999 33.8572 2.85404Z" fill="#422C19"/>
<path d="M32.7648 11.2058L32.2956 20.8321V20.8332L31.881 29.3221C31.881 29.3221 28.2038 29.9421 26.7101 28.2874C26.7101 28.2874 27.0352 17.054 27.9585 14.0893C28.3114 12.956 30.2589 11.71 32.4655 11.2603C32.566 11.2386 32.6653 11.2211 32.7648 11.2058Z" fill="white"/>
<path d="M32.7645 11.2058L32.2953 20.8321C32.2662 20.7797 30.4161 17.3472 30.4585 16.5658C30.5022 15.7767 31.8454 14.1036 31.8454 14.1036C31.8454 14.1036 31.4199 13.488 31.1217 13.0362C30.8974 12.6979 31.9328 11.7254 32.4651 11.2605C32.5657 11.2386 32.665 11.2211 32.7645 11.2058Z" fill="#E2E5E5"/>
<path d="M30.7318 23.9636C30.7208 23.9636 30.7098 23.9624 30.6987 23.9597C30.4827 23.9079 28.1776 23.498 28.1543 23.4939C28.0849 23.4815 28.0397 23.4208 28.0533 23.3584C28.0671 23.296 28.1347 23.2552 28.2039 23.2676C28.2993 23.2845 30.5406 23.6831 30.7648 23.7369C30.8331 23.7533 30.8738 23.8165 30.8555 23.8781C30.8402 23.9296 30.7884 23.9636 30.7318 23.9636Z" fill="#E2E5E5"/>
<path d="M37.5233 7.41675C37.5208 8.18826 37.4426 9.89857 36.824 10.5875C35.8557 11.6639 33.3628 11.8081 32.1316 10.4576C31.4849 9.74659 31.381 8.26081 31.3761 7.45303C31.4189 7.46407 31.469 7.46182 31.5277 7.44424C32.2893 7.22196 32.9215 6.56819 32.7649 5.74609C32.7649 5.74609 35.3324 7.63137 37.5183 7.42115C37.5183 7.42115 37.5197 7.42002 37.5233 7.41675Z" fill="#FFDCB9"/>
<path d="M37.5236 7.41688C37.5236 7.55219 37.5199 7.71623 37.5126 7.89896C37.4893 8.46024 37.4208 9.19322 37.2326 9.79303V9.79416C37.1336 10.1122 37.0003 10.3907 36.8242 10.5876C36.6494 10.7813 36.4269 10.9442 36.1689 11.0741C35.9636 10.657 35.8303 10.318 35.8303 10.318L34.4976 10.5403L33.1663 10.318C33.1663 10.318 33.044 10.6273 32.8545 11.018C32.5868 10.8728 32.341 10.6868 32.132 10.4578C31.9731 10.2829 31.8472 10.0616 31.7482 9.81511C31.5036 9.21316 31.4156 8.46137 31.3875 7.87147C31.3801 7.71961 31.3777 7.57878 31.3765 7.45327C31.4193 7.46431 31.4693 7.46206 31.528 7.44449C32.2897 7.2222 32.9218 6.56843 32.7653 5.74634C32.7653 5.74634 35.3328 7.63162 37.5187 7.42139C37.5187 7.42139 37.52 7.42015 37.5236 7.41688Z" fill="#FFDCB9"/>
<path d="M36.0581 11.1279C36.0556 11.337 36.0263 11.577 35.9542 11.8498C34.9651 12.1558 33.7486 12.1228 32.7437 11.6616L32.7657 11.206C32.7644 11.206 32.762 11.206 32.7608 11.2071C32.7938 11.1422 32.8256 11.0794 32.8549 11.0178C33.8415 11.556 35.1349 11.5472 36.0581 11.1279Z" fill="#F7BC86"/>
<path d="M37.6893 8.24432C37.6651 8.24432 37.6431 8.22956 37.637 8.20748C37.6298 8.18146 37.6475 8.15509 37.6764 8.14867C37.676 8.14867 37.7508 8.12445 37.8377 7.97664C37.9192 7.83806 37.7376 7.69656 37.7357 7.69521C37.7131 7.67786 37.7102 7.64721 37.7293 7.62682C37.7486 7.60643 37.7823 7.60373 37.8052 7.62108C37.8154 7.62885 38.0552 7.81418 37.9329 8.02215C37.8216 8.21165 37.7141 8.24038 37.7022 8.24308C37.698 8.24387 37.6937 8.24432 37.6893 8.24432Z" fill="#E0AD83"/>
<path d="M37.3199 7.44477C37.3199 7.44477 37.7841 6.97339 38.211 7.40252C38.6789 7.87266 37.8164 8.9025 37.3148 8.64225L37.3199 7.44477Z" fill="#F7BC86"/>
<path d="M31.5284 7.44477C31.5284 7.44477 31.0642 6.97339 30.6373 7.40252C30.1695 7.87266 31.0319 8.9025 31.5334 8.64225L31.5284 7.44477Z" fill="#F7BC86"/>
<path d="M36.3442 19.8723L32.7755 16.5725C32.3922 16.2179 31.762 16.2104 31.3683 16.5555L26.414 20.8973C26.0202 21.2424 26.0118 21.8096 26.3951 22.1641L29.9639 25.4639C30.3472 25.8185 30.9773 25.826 31.3711 25.481L36.3254 21.1391C36.7192 20.794 36.7276 20.2268 36.3442 19.8723Z" fill="#EA7C0F"/>
<g opacity="0.5">
<path opacity="0.47" d="M34.2324 8.8245C34.2324 9.37812 33.2605 9.82606 32.0623 9.82606C31.9559 9.82606 31.8508 9.8228 31.748 9.81502C31.5035 9.21307 31.4155 8.46128 31.3873 7.87139C31.6001 7.83838 31.8262 7.8208 32.0622 7.8208C33.2604 7.8208 34.2324 8.26976 34.2324 8.8245Z" fill="url(#paint0_radial_272_3009)"/>
<path opacity="0.47" d="M37.5125 7.89874C37.4892 8.46002 37.4208 9.193 37.2326 9.79281V9.79394C37.0541 9.81489 36.8682 9.82582 36.6762 9.82582C35.4769 9.82582 34.5061 9.37788 34.5061 8.82426C34.5061 8.26951 35.4769 7.82056 36.6762 7.82056C36.9732 7.82067 37.2557 7.84816 37.5125 7.89874Z" fill="url(#paint1_radial_272_3009)"/>
</g>
<path d="M28.7346 12.9038C28.7346 12.9038 24.9595 16.4484 26.2254 20.2849C26.8295 22.116 31.5731 24.1575 31.5731 24.1575L32.8365 22.8735L28.7588 19.551L29.5542 14.9375L28.7346 12.9038Z" fill="white"/>
<path d="M31.5728 24.1574C31.5728 24.1574 32.7342 25.7716 33.692 25.2763C34.0794 25.0759 34.7108 24.1941 34.6904 23.9923C34.67 23.7906 33.6309 23.4054 33.6309 23.4054C33.6309 23.4054 34.5683 22.9835 34.446 22.8734C34.3237 22.7633 32.8363 22.8734 32.8363 22.8734L31.5728 24.1574Z" fill="#FFDCB9"/>
<path d="M34.0766 7.58333C33.6973 7.3303 33.1751 7.3303 32.7957 7.58333C32.7242 7.63088 32.7075 7.71008 32.751 7.74681C32.7557 7.75109 32.7605 7.75526 32.7651 7.75954C32.8085 7.7966 32.8833 7.79029 32.9367 7.75514C33.2326 7.55787 33.6397 7.55787 33.9355 7.75514C33.989 7.79041 34.0636 7.7966 34.1071 7.75954C34.1119 7.75526 34.1166 7.75109 34.1213 7.74681C34.1648 7.71008 34.1481 7.63088 34.0766 7.58333Z" fill="#3E2722"/>
<path d="M33.6168 8.12555C33.6168 8.22841 33.524 8.31189 33.4098 8.31189C33.2955 8.31189 33.2028 8.22852 33.2028 8.12555C33.2028 8.02258 33.2955 7.93921 33.4098 7.93921C33.5242 7.93921 33.6168 8.02258 33.6168 8.12555Z" fill="#3E2722"/>
<path d="M36.283 7.58333C35.9037 7.3303 35.3815 7.3303 35.0021 7.58333C34.9306 7.63088 34.914 7.71008 34.9574 7.74681C34.9622 7.75109 34.9668 7.75526 34.9715 7.75954C35.015 7.7966 35.0897 7.79029 35.1431 7.75514C35.439 7.55787 35.8461 7.55787 36.142 7.75514C36.1954 7.79041 36.27 7.7966 36.3135 7.75954C36.3183 7.75526 36.3229 7.75109 36.3277 7.74681C36.3711 7.71008 36.3545 7.63088 36.283 7.58333Z" fill="#3E2722"/>
<path d="M35.8137 8.12555C35.8137 8.22841 35.7209 8.31189 35.6067 8.31189C35.4924 8.31189 35.3997 8.22852 35.3997 8.12555C35.3997 8.02258 35.4923 7.93921 35.6067 7.93921C35.721 7.93921 35.8137 8.02258 35.8137 8.12555Z" fill="#3E2722"/>
<path d="M34.7931 9.16725C34.7931 9.08343 34.644 8.93066 34.4599 8.93066C34.2758 8.93066 34.1266 9.08343 34.1266 9.16725C34.1266 9.25107 34.2758 9.2673 34.4599 9.2673C34.644 9.26718 34.7931 9.25096 34.7931 9.16725Z" fill="#EAA757"/>
<path d="M34.0796 9.96153C34.3762 10.1399 34.7728 10.1091 35.031 9.88774C35.0642 9.85957 35.1144 9.85146 35.1459 9.87445C35.1774 9.89732 35.1734 9.94914 35.1326 9.98395C34.8245 10.248 34.3514 10.2849 33.9976 10.0721C33.9508 10.044 33.9369 9.99353 33.9637 9.96615C33.9907 9.93866 34.0417 9.93889 34.0796 9.96153Z" fill="#3E2722"/>
<path d="M32.3202 23.3972L32.8362 22.8733L32.3214 23.3972H32.3202Z" fill="#C6640C"/>
<path d="M33.077 22.8579C32.9315 22.8667 32.8363 22.8734 32.8363 22.8734L28.7589 19.5508L28.9032 18.7165L30.0684 17.6941C29.8459 18.1596 29.3959 19.2591 29.8715 19.7093C30.3213 20.134 32.1467 21.9367 33.077 22.8579Z" fill="#C6640C"/>
<path d="M9.08107 41.2182C9.08107 41.2182 7.57111 41.7064 6.66212 41.8648C6.65299 41.8664 6.64398 41.8681 6.63509 41.8698C5.90958 42.0119 6.03361 42.9793 6.77614 42.9793H10.04C10.1996 42.9793 10.3471 42.9028 10.4271 42.7785L10.558 42.5752C10.5694 42.5575 10.5903 42.5467 10.6129 42.5467H10.8426C10.8748 42.5467 10.9018 42.5682 10.9057 42.5969L10.9456 42.8893C10.9542 42.9524 11.0138 42.9998 11.0844 42.9998H11.8871C12.038 42.9998 12.1604 42.8895 12.1602 42.7536L12.1581 41.3606L10.3564 40.8091L9.08107 41.2182Z" fill="#422C19"/>
<path d="M19.5117 41.2182C19.5117 41.2182 21.0217 41.7064 21.9307 41.8648C21.9398 41.8664 21.9488 41.8681 21.9576 41.8698C22.6832 42.0119 22.5591 42.9793 21.8166 42.9793H18.5527C18.3931 42.9793 18.2456 42.9028 18.1656 42.7785L18.0347 42.5752C18.0233 42.5575 18.0024 42.5467 17.9798 42.5467H17.7501C17.7179 42.5467 17.6909 42.5682 17.687 42.5969L17.6471 42.8893C17.6385 42.9524 17.579 42.9998 17.5083 42.9998H16.7056C16.5545 42.9998 16.4322 42.8895 16.4325 42.7536L16.4346 41.3606L18.2364 40.8091L19.5117 41.2182Z" fill="#422C19"/>
<path d="M18.6992 20.0662H14.6805H13.9285H9.90986L8.74719 41.3607H12.1586L13.646 25.5404C13.6749 25.2324 13.9612 24.9956 14.3046 24.9956C14.648 24.9956 14.9342 25.2324 14.9631 25.5404L16.4505 41.3607H19.8619L18.6992 20.0662Z" fill="#4D4D4F"/>
<path d="M14.6805 20.0662H13.9284H13.2156V23.2174L14.3975 24.062V22.7251L14.7702 20.0662H14.6805Z" fill="#2A2A2D"/>
<path d="M0.988892 16.8829C0.988892 16.8829 2.4717 22.1137 4.07728 22.3201C7.08757 22.7072 9.43318 19.2584 9.43318 19.2584L7.43938 12.7126C7.43938 12.7126 4.74184 18.5722 4.27277 18.9944C3.8037 19.4167 1.98573 15.0089 1.98573 15.0089L0.988892 16.8829Z" fill="white"/>
<path d="M17.0334 11.4124L14.3904 11.5514L11.7475 11.4124L10.6415 20.6445H14.3834H14.3974H18.1395L17.0334 11.4124Z" fill="#55C1BC"/>
<path d="M16.388 10.2485C16.388 10.2485 15.3319 11.4456 14.3973 11.5219C14.3973 11.5219 15.5878 12.8248 15.9477 12.8028C16.3831 12.7762 17.9602 11.0594 17.5193 10.517C17.4312 10.4087 16.388 10.2485 16.388 10.2485Z" fill="#81D1CC"/>
<path d="M12.4069 10.2485C12.4069 10.2485 13.4631 11.4456 14.3976 11.5219C14.3976 11.5219 13.2071 12.8248 12.8472 12.8028C12.4118 12.7762 10.8346 11.0594 11.2757 10.517C11.3638 10.4087 12.4069 10.2485 12.4069 10.2485Z" fill="#81D1CC"/>
<path d="M16.6758 10.2886L17.1689 20.4057V20.4068L17.6047 29.3287C17.6047 29.3287 21.4695 29.9802 23.0393 28.2413C23.0393 28.2413 21.1241 16.3526 20.1538 13.2367C19.7828 12.0456 19.3096 10.8184 16.9904 10.3458C16.8847 10.3229 16.7803 10.3047 16.6758 10.2886Z" fill="white"/>
<path d="M16.6758 10.2886L17.1689 20.4057C17.1994 20.3506 19.1439 16.7431 19.0994 15.9218C19.0534 15.0925 17.6416 13.3339 17.6416 13.3339C17.6416 13.3339 18.0889 12.687 18.4023 12.212C18.638 11.8565 17.5497 10.8344 16.9904 10.3458C16.8847 10.3229 16.7803 10.3047 16.6758 10.2886Z" fill="#E2E5E5"/>
<path d="M18.813 23.6864C18.7587 23.6864 18.709 23.6537 18.6942 23.6043C18.6768 23.5452 18.7157 23.4846 18.7813 23.4688C19.0165 23.4124 21.3718 22.9935 21.472 22.9758C21.5388 22.9637 21.6033 23.003 21.6164 23.0629C21.6295 23.1229 21.5862 23.1811 21.5197 23.1929C21.4951 23.1973 19.0722 23.6282 18.8448 23.6828C18.8341 23.6852 18.8234 23.6864 18.813 23.6864Z" fill="#E2E5E5"/>
<path d="M12.1648 10.2886L11.6717 20.4057V20.4068L11.2359 29.3287C11.2359 29.3287 7.37106 29.9802 5.80127 28.2413C5.80127 28.2413 6.14306 16.4349 7.11337 13.3191C7.48432 12.128 9.53106 10.8184 11.8501 10.3458C11.9558 10.3229 12.0603 10.3047 12.1648 10.2886Z" fill="white"/>
<path d="M10.0277 23.6865C10.0172 23.6865 10.0065 23.6853 9.9959 23.6828C9.7685 23.6282 7.34555 23.1973 7.32102 23.1929C7.25443 23.1811 7.21113 23.123 7.22427 23.0629C7.23729 23.0031 7.30174 22.9637 7.3687 22.9758C7.46882 22.9936 9.82419 23.4124 10.0594 23.4688C10.1249 23.4846 10.1639 23.5452 10.1465 23.6043C10.1317 23.6538 10.0819 23.6865 10.0277 23.6865Z" fill="#E2E5E5"/>
<path d="M12.1644 10.2886L11.6713 20.4057C11.6408 20.3506 9.69631 16.7431 9.74087 15.9218C9.7868 15.0925 11.1986 13.3339 11.1986 13.3339C11.1986 13.3339 10.7513 12.687 10.438 12.212C10.2022 11.8565 11.2904 10.8344 11.8498 10.3458C11.9554 10.3229 12.0599 10.3047 12.1644 10.2886Z" fill="#E2E5E5"/>
<path d="M15.1349 12.2597L14.6517 12.682V12.683L14.4851 12.8277L14.3984 12.9037L14.3421 12.8542L14.1556 12.6926L14.1451 12.682L13.6619 12.2597C14.0313 11.9208 14.3761 11.546 14.3973 11.5227L14.3984 11.5217C14.3984 11.5217 14.3984 11.5217 14.3995 11.5227C14.4207 11.546 14.7655 11.9208 15.1349 12.2597Z" fill="#D61D2F"/>
<path d="M14.6274 12.5161L14.3975 12.5735L14.1677 12.5161L12.9375 21.1586L14.3975 22.32L15.8577 21.1586L14.6274 12.5161Z" fill="#D61D2F"/>
<path d="M14.6395 12.6023L14.1423 12.6948L14.1135 12.8968L14.6668 12.7938L14.6395 12.6023Z" fill="#FF5A72"/>
<path d="M14.7768 13.5642L13.9981 13.7092L13.9694 13.9112L14.804 13.7558L14.7768 13.5642Z" fill="#FF5A72"/>
<path d="M14.9143 14.5261L13.8542 14.7234L13.8256 14.9254L14.9415 14.7178L14.9143 14.5261Z" fill="#FF5A72"/>
<path d="M15.0503 15.4883L13.7091 15.7379L13.6803 15.9399L15.0776 15.6798L15.0503 15.4883Z" fill="#FF5A72"/>
<path d="M15.1875 16.4502L13.5649 16.7522L13.5361 16.9541L15.2148 16.6417L15.1875 16.4502Z" fill="#FF5A72"/>
<path d="M15.3246 17.4124L13.4206 17.7667L13.392 17.9687L15.3519 17.6039L15.3246 17.4124Z" fill="#FF5A72"/>
<path d="M15.4615 18.3743L13.2762 18.781L13.2474 18.983L15.4887 18.5658L15.4615 18.3743Z" fill="#FF5A72"/>
<path d="M15.5983 19.3364L13.1317 19.7955L13.1029 19.9974L15.6256 19.528L15.5983 19.3364Z" fill="#FF5A72"/>
<path d="M15.7353 20.2983L12.9873 20.8097L12.9585 21.0117L15.7625 20.4899L15.7353 20.2983Z" fill="#FF5A72"/>
<path d="M19.3121 22.2283L20.0474 17.0677L18.4629 13.0696L20.7899 17.2419L19.3121 22.2283Z" fill="#E2E5E5"/>
<path d="M18.5504 10.9075C18.5504 10.9075 23.3504 13.2402 23.4514 17.2414C23.4995 19.151 21.4953 22.359 21.4953 22.359L19.3117 22.2287L20.7901 17.2414L18.4625 13.0693L18.5504 10.9075Z" fill="white"/>
<path d="M22.0411 22.3601L21.5719 22.9535L20.4131 23.2829L20.4705 22.2979L21.4955 22.3592C21.4955 22.3592 21.6691 22.0815 21.913 21.6414C21.9566 21.8829 21.9988 22.1225 22.0411 22.3601Z" fill="#E2E5E5"/>
<path d="M21.1508 23.1456L19.3388 23.474C19.2462 22.5396 19.6214 22.3591 19.6214 22.3591L19.6624 22.2493L21.0851 22.3348L21.0663 22.4952C21.0229 22.6558 21.1508 23.1456 21.1508 23.1456Z" fill="#FFDCB9"/>
<path d="M8.82248 18.4321H8.22588C7.79673 18.4321 7.31689 18.0374 7.31689 17.5093V16.3237H7.54029V17.5093C7.54029 17.9158 7.90887 18.231 8.226 18.231H8.8226L8.82248 18.4321Z" fill="#4D4D4F"/>
<path d="M7.65187 16.3238H7.20508V15.6699C7.20508 14.4852 8.27576 13.5212 9.59186 13.5212C10.908 13.5212 11.9788 14.4851 11.9788 15.6699V16.3113H11.532V15.6699C11.532 14.7069 10.6617 13.9234 9.59186 13.9234C8.52206 13.9234 7.65175 14.707 7.65175 15.6699L7.65187 16.3238Z" fill="#4D4D4F"/>
<path d="M10.8419 18.4321H10.347V18.231H10.8419C11.2841 18.231 11.6438 17.9072 11.6438 17.5093V16.3113H11.8671V17.5094C11.8671 18.0182 11.4072 18.4321 10.8419 18.4321Z" fill="#4D4D4F"/>
<path d="M8.9273 18.3303C8.9273 18.1719 8.80328 18.0435 8.65022 18.0435C8.49715 18.0435 8.45911 18.1719 8.45911 18.3303C8.45911 18.4887 8.49715 18.6171 8.65022 18.6171C8.80328 18.6171 8.9273 18.4887 8.9273 18.3303Z" fill="#4D4D4F"/>
<path d="M10.144 18.3303C10.144 18.4887 10.2681 18.6171 10.4211 18.6171C10.5742 18.6171 10.6122 18.4887 10.6122 18.3303C10.6122 18.1719 10.5742 18.0435 10.4211 18.0435C10.2682 18.0435 10.144 18.1719 10.144 18.3303Z" fill="#4D4D4F"/>
<path d="M19.052 15.0861H18.6335V14.024C18.6335 11.8135 16.6358 10.0152 14.1802 10.0152C11.8723 10.0152 9.92234 11.6354 9.74087 13.7037L9.32361 13.6741C9.52223 11.411 11.6555 9.63843 14.1802 9.63843C16.8664 9.63843 19.052 11.6058 19.052 14.024V15.0861Z" fill="#4D4D4F"/>
<path d="M20.1397 15.9811C20.1397 15.3395 19.5619 14.8193 18.8492 14.8193C18.1364 14.8193 17.5586 15.3395 17.5586 15.9811C17.5586 16.6227 18.1364 17.1429 18.8492 17.1429C19.5619 17.1428 20.1397 16.6227 20.1397 15.9811Z" fill="#4D4D4F"/>
<path d="M19.5781 15.981C19.5781 15.6187 19.2519 15.325 18.8494 15.325C18.4469 15.325 18.1206 15.6187 18.1206 15.981C18.1206 16.3433 18.4469 16.637 18.8494 16.637C19.2517 16.637 19.5781 16.3433 19.5781 15.981Z" fill="#2A2A2D"/>
<path d="M18.1206 15.9811C18.1206 16.1953 18.2351 16.3848 18.4115 16.5045C18.4425 16.5081 18.474 16.5107 18.5062 16.5107C18.9087 16.5107 19.235 16.217 19.235 15.8547C19.235 15.6405 19.1204 15.4509 18.9441 15.3311C18.9131 15.3275 18.8815 15.325 18.8494 15.325C18.4469 15.325 18.1206 15.6187 18.1206 15.9811Z" fill="#4D4D4F"/>
<path d="M0.945199 13.7688C0.945199 13.7688 0.842324 13.5085 0.491646 13.6913C0.140969 13.8742 0.278137 14.7529 0.722178 14.7427C1.13293 14.7332 0.945199 13.7688 0.945199 13.7688Z" fill="#FFDCB9"/>
<path d="M8.51717 10.796L2.04954 10.7179C1.35469 10.7094 0.78387 11.2098 0.774609 11.8351L0.657341 19.7039C0.648079 20.3294 1.20376 20.8432 1.89848 20.8516L8.36611 20.9296C9.06095 20.938 9.63178 20.4378 9.64104 19.8124L9.7583 11.9436C9.76769 11.3181 9.21201 10.8043 8.51717 10.796Z" fill="#EA7C0F"/>
<path d="M8.51684 12.2194L2.68023 12.149C2.36034 12.1451 2.09752 12.3754 2.09314 12.6634L1.99114 19.511C1.98689 19.7989 2.2427 20.0355 2.56271 20.0395L8.3992 20.1099C8.71909 20.1137 8.98191 19.8834 8.98629 19.5955L9.08829 12.7479C9.09254 12.4598 8.83673 12.2232 8.51684 12.2194Z" fill="#CC6E11"/>
<path d="M8.18542 11.8739L2.34893 11.8035C2.02904 11.7997 1.76622 12.03 1.76184 12.3179L1.65984 19.1655C1.65559 19.4535 1.9114 19.69 2.23129 19.694L8.06778 19.7644C8.38766 19.7682 8.65049 19.538 8.65487 19.25L8.75686 12.4024C8.76124 12.1143 8.50531 11.8778 8.18542 11.8739Z" fill="white"/>
<path d="M7.33724 11.34L6.63939 11.3316C6.58282 10.7803 6.07183 10.3451 5.44319 10.3376L5.13569 10.3338C4.50705 10.3263 3.98328 10.7489 3.91032 11.2987L3.21247 11.2902C2.92962 11.2868 2.69634 11.5473 2.69158 11.8722L2.69033 11.953C2.68833 12.0914 2.81123 12.2051 2.96504 12.207L7.55726 12.2624C7.71107 12.2642 7.83735 12.1536 7.83936 12.0151L7.84061 11.9344C7.84549 11.6095 7.62009 11.3435 7.33724 11.34ZM5.49174 11.3462C5.1711 11.5599 4.81705 11.2328 5.06297 10.9499C5.38374 10.7359 5.73792 11.0633 5.49174 11.3462Z" fill="#F9CB0B"/>
<path d="M4.36831 13.3215C4.37532 12.849 3.95556 12.4608 3.43067 12.4544C2.90578 12.4481 2.47463 12.826 2.46749 13.2985C2.46049 13.771 2.88025 14.1591 3.40514 14.1655C3.93003 14.1719 4.3613 13.794 4.36831 13.3215Z" fill="#FF4650"/>
<path d="M7.96582 12.8432L5.39569 12.8123C5.3435 12.8116 5.30032 12.8496 5.29957 12.8964C5.29882 12.9434 5.341 12.9823 5.39306 12.9829L7.96319 13.0139C8.01538 13.0145 8.05856 12.9766 8.05931 12.9298C8.06006 12.8828 8.01788 12.8439 7.96582 12.8432Z" fill="#42423F"/>
<path d="M7.18265 13.2699L5.38934 13.2483C5.33715 13.2476 5.29397 13.2856 5.29322 13.3325C5.29247 13.3794 5.33465 13.4183 5.38671 13.419L7.18002 13.4406C7.23221 13.4413 7.27539 13.4033 7.27614 13.3565C7.27689 13.3096 7.23471 13.2706 7.18265 13.2699Z" fill="#42423F"/>
<path d="M6.4364 13.6949L5.38311 13.6821C5.33093 13.6815 5.28775 13.7194 5.287 13.7663C5.28625 13.8133 5.32842 13.8521 5.38049 13.8528L6.43377 13.8656C6.48596 13.8662 6.52914 13.8283 6.52989 13.7814C6.53051 13.7344 6.48846 13.6954 6.4364 13.6949Z" fill="#42423F"/>
<path d="M2.99605 15.3035C2.9958 15.323 2.9779 15.3387 2.95625 15.3383L2.71483 15.3354C2.69318 15.3352 2.67578 15.3191 2.67616 15.2996L2.67941 15.0823C2.67966 15.0628 2.69756 15.0471 2.71921 15.0474L2.96063 15.0504C2.98228 15.0506 2.99968 15.0667 2.9993 15.0862L2.99605 15.3035ZM3.00406 14.9178L2.67966 14.9138C2.59957 14.9128 2.53311 14.9711 2.53198 15.0433L2.5276 15.3353C2.52648 15.4074 2.59118 15.4672 2.6714 15.4682L2.9958 15.4722C3.0759 15.4732 3.14235 15.415 3.14348 15.3427L3.14786 15.0507C3.14886 14.9785 3.08416 14.9187 3.00406 14.9178Z" fill="#42423F"/>
<path d="M2.97883 16.4228C2.97858 16.4423 2.96069 16.4579 2.93903 16.4576L2.69761 16.4547C2.67609 16.4544 2.65857 16.4383 2.65894 16.4188L2.6622 16.2015C2.66245 16.182 2.68034 16.1664 2.702 16.1667L2.94341 16.1696C2.96507 16.1699 2.98246 16.186 2.98209 16.2055L2.97883 16.4228ZM2.98684 16.0369L2.66245 16.033C2.58235 16.032 2.51589 16.0902 2.51477 16.1624L2.51039 16.4544C2.50939 16.5265 2.57396 16.5864 2.65419 16.5874L2.97858 16.5913C3.05868 16.5923 3.12514 16.5341 3.12626 16.4619L3.13064 16.1699C3.13164 16.0978 3.06694 16.0379 2.98684 16.0369Z" fill="#42423F"/>
<path d="M2.96309 17.5419C2.96284 17.5613 2.94494 17.5771 2.92329 17.5767L2.68187 17.5738C2.66022 17.5736 2.64282 17.5575 2.6432 17.538L2.64645 17.3207C2.6467 17.3012 2.6646 17.2855 2.68625 17.2858L2.92767 17.2888C2.94932 17.289 2.96672 17.3051 2.96634 17.3246L2.96309 17.5419ZM2.9711 17.1561L2.6467 17.1521C2.56661 17.1511 2.50015 17.2093 2.49902 17.2816L2.49464 17.5736C2.49352 17.6457 2.55822 17.7055 2.63844 17.7065L2.96284 17.7105C3.04294 17.7115 3.10939 17.6532 3.11052 17.581L3.1149 17.289C3.1159 17.2169 3.0512 17.1571 2.9711 17.1561Z" fill="#42423F"/>
<path d="M2.946 18.6609C2.94575 18.6804 2.92785 18.6961 2.9062 18.6958L2.66478 18.6928C2.64313 18.6926 2.62573 18.6765 2.62611 18.657L2.62936 18.4397C2.62961 18.4202 2.64751 18.4045 2.66916 18.4049L2.91058 18.4078C2.93211 18.408 2.94963 18.4241 2.94925 18.4436L2.946 18.6609ZM2.95401 18.2752L2.62961 18.2713C2.54952 18.2703 2.48306 18.3285 2.48193 18.4007L2.47755 18.6927C2.47643 18.7648 2.54113 18.8246 2.62135 18.8257L2.94575 18.8296C3.02585 18.8306 3.0923 18.7724 3.09343 18.7002L3.09781 18.4081C3.09893 18.3359 3.03423 18.2761 2.95401 18.2752Z" fill="#42423F"/>
<path d="M2.68251 14.9003L2.84446 15.0502L3.22042 14.7206C3.26497 14.6816 3.33631 14.6825 3.37973 14.7226C3.42316 14.7627 3.42216 14.8269 3.37761 14.8659L2.84533 15.3323L2.52669 15.0364C2.48615 14.9988 2.48589 14.9391 2.52594 14.9011C2.5685 14.861 2.63946 14.8607 2.68251 14.9003Z" fill="#FF4650"/>
<path d="M2.64918 17.1572L2.81113 17.307L3.18721 16.9775C3.23177 16.9384 3.3031 16.9393 3.34653 16.9794C3.38996 17.0195 3.38896 17.0837 3.3444 17.1228L2.81213 17.5892L2.49349 17.2934C2.45294 17.2558 2.45269 17.196 2.49274 17.1581C2.53517 17.1179 2.60625 17.1174 2.64918 17.1572Z" fill="#FF4650"/>
<path d="M6.2906 15.1548L3.67916 15.1233C3.63448 15.1227 3.59731 15.1553 3.59669 15.1955C3.59606 15.2357 3.63223 15.2692 3.67691 15.2698L6.28834 15.3013C6.33302 15.3019 6.37019 15.2693 6.37082 15.2291C6.37144 15.1888 6.3354 15.1554 6.2906 15.1548Z" fill="#42423F"/>
<path d="M5.43335 16.2917L3.66232 16.2703C3.61764 16.2697 3.58047 16.3023 3.57984 16.3425C3.57922 16.3827 3.61539 16.4162 3.66006 16.4167L5.4311 16.4381C5.47578 16.4387 5.51295 16.4061 5.51357 16.3659C5.5142 16.3257 5.47803 16.2922 5.43335 16.2917Z" fill="#42423F"/>
<path d="M6.21172 17.4158L3.64547 17.3848C3.60067 17.3842 3.56362 17.4168 3.563 17.457C3.56237 17.4972 3.59854 17.5307 3.64322 17.5311L6.20947 17.5621C6.25415 17.5627 6.29132 17.5301 6.29195 17.4899C6.29257 17.4497 6.2564 17.4163 6.21172 17.4158Z" fill="#42423F"/>
<path d="M5.58123 18.5226L3.62948 18.499C3.5848 18.4985 3.54763 18.531 3.54701 18.5712C3.54638 18.6115 3.58255 18.6449 3.62723 18.6455L5.57898 18.669C5.62366 18.6696 5.66083 18.637 5.66133 18.5968C5.66208 18.5565 5.62591 18.5231 5.58123 18.5226Z" fill="#42423F"/>
<path d="M1.73189 14.3724L1.71662 15.3965L0.717407 15.7228L0.742062 14.0198C1.11389 14.0905 1.4528 14.2279 1.73189 14.3724Z" fill="#CC6E11"/>
<path d="M0.652295 14.5613C0.380839 14.5959 2.78038e-08 14.9177 2.78038e-08 15.6157C-0.000125125 16.8064 0.422265 17.1642 1.13238 17.2108C1.8425 17.2573 2.07515 16.3364 2.07853 15.543C2.08254 14.5802 1.01699 14.5149 0.652295 14.5613Z" fill="#FFDCB9"/>
<path d="M3.96495 13.105H3.63618V12.8091H3.20878V13.105H2.88V13.4897H3.20878V13.7856H3.63618V13.4897H3.96495V13.105Z" fill="white"/>
<path d="M16.3452 8.89575L14.3834 9.00132L12.4216 8.89575L12.392 10.5569C12.392 10.5569 13.461 11.7332 14.3834 11.5466C15.3058 11.7334 16.3748 10.5569 16.3748 10.5569L16.3452 8.89575Z" fill="#FFDCB9"/>
<path d="M16.3588 9.6508C15.7384 10.0172 14.9948 10.2938 14.2559 10.2896C13.605 10.2864 12.9599 10.0647 12.4064 9.76278L12.4169 9.16737C12.9447 9.4978 13.5991 9.75861 14.2594 9.76177C15.0088 9.76594 15.7653 9.43865 16.3482 9.04175L16.3588 9.6508Z" fill="#F7BC86"/>
<path d="M17.51 5.02948C17.51 5.02948 18.0303 4.50132 18.5086 4.98205C19.0329 5.50896 18.0665 6.66307 17.5043 6.37139L17.51 5.02948Z" fill="#F7BC86"/>
<path d="M17.9242 5.92535C17.8971 5.92535 17.8724 5.90879 17.8657 5.88401C17.8577 5.85483 17.8774 5.82531 17.9099 5.8181C17.9093 5.8181 17.9932 5.79095 18.0907 5.62534C18.1821 5.46998 17.9784 5.31146 17.9764 5.30988C17.951 5.29039 17.9479 5.25614 17.9693 5.23316C17.9908 5.21029 18.0286 5.20725 18.0544 5.22674C18.0659 5.23541 18.3347 5.44305 18.1976 5.67615C18.0727 5.88851 17.9523 5.92074 17.939 5.92366C17.934 5.9249 17.9291 5.92535 17.9242 5.92535Z" fill="#E0AD83"/>
<path d="M11.0198 5.02948C11.0198 5.02948 10.4995 4.50132 10.0212 4.98205C9.49694 5.50896 10.4634 6.66307 11.0256 6.37139L11.0198 5.02948Z" fill="#F7BC86"/>
<path d="M10.5966 5.9254C10.5919 5.9254 10.5871 5.92484 10.5822 5.92383C10.5689 5.92078 10.4485 5.88867 10.3237 5.67631C10.1865 5.44321 10.4553 5.23558 10.4669 5.2269C10.4925 5.20752 10.5303 5.21056 10.552 5.23332C10.5735 5.25619 10.5704 5.29055 10.5448 5.31004C10.5428 5.31162 10.3392 5.47014 10.4306 5.6255C10.5286 5.79201 10.6127 5.8186 10.6135 5.81882C10.6444 5.82795 10.6628 5.8578 10.6538 5.88586C10.6462 5.90963 10.6228 5.9254 10.5966 5.9254Z" fill="#E0AD83"/>
<path d="M11.3419 1.28029C11.3419 1.28029 9.94711 1.09383 10.0721 3.90823C10.1312 5.23831 10.5134 6.55116 11.809 6.70145C11.809 6.70145 17.551 7.06095 17.9393 5.99326C18.3277 4.92556 18.6127 3.1214 18.2241 2.14418C17.8353 1.16695 16.6015 0.498302 15.7463 0.372909C14.8911 0.24763 14.2819 0.540438 14.2819 0.540438C14.2819 0.540438 14.7627 0.265431 15.16 0.171246C15.4638 0.0992548 14.1002 -0.369868 12.0827 0.640594C11.6586 0.853299 11.228 1.24716 11.3419 1.28029Z" fill="#422C19"/>
<path d="M17.708 5.69794C17.6762 6.22294 17.6126 6.85024 17.4818 7.39947C17.4818 7.39947 17.4818 7.39946 17.4818 7.40059C17.3669 7.88819 17.1982 8.31292 16.9549 8.55177C16.3717 9.12296 15.3093 9.76795 14.2603 9.76243C13.21 9.75691 12.1734 9.09987 11.6427 8.55177C11.375 8.27552 11.1928 7.87715 11.0705 7.4336C10.9141 6.86894 10.8541 6.23285 10.837 5.6914C10.8137 4.97386 10.8651 4.4225 10.8651 4.4225C11.4874 2.97637 12.9264 2.79915 13.8972 2.71995C16.7471 2.48663 17.7325 4.56231 17.7325 4.56231C17.7325 4.56231 17.7446 5.05295 17.708 5.69794Z" fill="#FFDCB9"/>
<path d="M10.8373 4.89229C10.8373 4.89229 11.5475 5.10848 11.8491 3.53595C11.8491 3.53595 12.4192 4.42238 13.4039 4.35241C13.4039 4.35241 12.5747 3.83924 12.5228 3.23278C12.5228 3.23278 15.4618 5.19974 17.5866 4.94321L17.9399 4.77985C17.9399 4.77985 17.9019 3.95134 17.4721 3.60592C16.7466 3.02278 15.1659 2.13636 13.7666 2.32293C12.5679 2.48279 11.2493 2.8904 10.816 4.16596C10.7435 4.37934 10.7929 4.64714 10.8373 4.89229Z" fill="#422C19"/>
<path d="M13.5875 5.06714H12.3536C12.2778 5.06714 12.2157 5.12302 12.2157 5.19129V5.21416C12.2157 5.28244 12.2778 5.33843 12.3536 5.33843H13.5875C13.6633 5.33843 13.7255 5.28255 13.7255 5.21416V5.19129C13.7255 5.12302 13.6635 5.06714 13.5875 5.06714Z" fill="#3E2722"/>
<path d="M13.2313 5.77984C13.2313 5.90298 13.1204 6.0028 12.9836 6.0028C12.8469 6.0028 12.7358 5.90298 12.7358 5.77984C12.7358 5.6567 12.8467 5.55688 12.9836 5.55688C13.1204 5.55688 13.2313 5.6567 13.2313 5.77984Z" fill="#3E2722"/>
<path d="M16.0415 5.06714H14.8076C14.7318 5.06714 14.6697 5.12302 14.6697 5.19129V5.21416C14.6697 5.28244 14.7318 5.33843 14.8076 5.33843H16.0415C16.1173 5.33843 16.1794 5.28255 16.1794 5.21416V5.19129C16.1795 5.12302 16.1174 5.06714 16.0415 5.06714Z" fill="#3E2722"/>
<path d="M15.6283 5.77984C15.6283 5.90298 15.5174 6.0028 15.3806 6.0028C15.2438 6.0028 15.1328 5.90298 15.1328 5.77984C15.1328 5.6567 15.2437 5.55688 15.3806 5.55688C15.5174 5.55688 15.6283 5.6567 15.6283 5.77984Z" fill="#3E2722"/>
<path d="M14.4908 6.90166C14.4908 6.81289 14.3326 6.65088 14.1376 6.65088C13.9425 6.65088 13.7844 6.81289 13.7844 6.90166C13.7844 6.99044 13.9426 7.00768 14.1376 7.00768C14.3326 7.00768 14.4908 6.99044 14.4908 6.90166Z" fill="#F7BC86"/>
<path d="M13.3417 7.65039C13.2158 7.65039 13.1199 7.75674 13.1509 7.86648C13.2744 8.30484 13.7148 8.62931 14.2403 8.62931C14.7658 8.62931 15.2061 8.30484 15.3296 7.86648C15.3606 7.75663 15.2647 7.65039 15.1388 7.65039H13.3417Z" fill="#422C19"/>
<path d="M14.9642 7.90974C15.0568 7.90974 15.1318 7.84214 15.1318 7.75888V7.65039H13.3698V7.75888C13.3698 7.84214 13.4448 7.90974 13.5373 7.90974H14.9642Z" fill="white"/>
<path d="M13.6412 8.47282C13.8147 8.57162 14.0198 8.62942 14.2405 8.62942C14.4805 8.62942 14.7023 8.56115 14.8848 8.44578C14.8016 8.30867 14.5599 8.20874 14.271 8.20874C13.9631 8.20874 13.7067 8.32174 13.6412 8.47282Z" fill="#FF5A72"/>
<g opacity="0.5">
<path opacity="0.47" d="M14.1242 6.55082C14.1242 7.10444 13.1522 7.55238 11.954 7.55238C11.6508 7.55238 11.3623 7.52377 11.1006 7.47206C11.0896 7.45887 11.0786 7.44569 11.0701 7.43353C10.9136 6.86887 10.8537 6.23278 10.8365 5.69133C11.1629 5.59883 11.5457 5.54712 11.954 5.54712C13.1521 5.54701 14.1242 5.99608 14.1242 6.55082Z" fill="url(#paint2_radial_272_3009)"/>
<path opacity="0.47" d="M17.7074 5.69786C17.6756 6.22286 17.612 6.85016 17.4812 7.39939C17.4812 7.39939 17.4812 7.39939 17.4812 7.40051C17.4653 7.42361 17.447 7.44671 17.4274 7.47093C17.1646 7.52377 16.8723 7.55238 16.568 7.55238C15.3686 7.55238 14.3978 7.10444 14.3978 6.55082C14.3978 5.99608 15.3686 5.54712 16.568 5.54712C16.9861 5.54701 17.3761 5.6021 17.7074 5.69786Z" fill="url(#paint3_radial_272_3009)"/>
</g>
<defs>
<radialGradient id="paint0_radial_272_3009" cx="0" cy="0" r="1" gradientUnits="userSpaceOnUse" gradientTransform="translate(32.8099 8.8234) scale(1.27751 1.15)">
<stop stop-color="#FF4A4A"/>
<stop offset="1" stop-color="#FFAC68" stop-opacity="0"/>
</radialGradient>
<radialGradient id="paint1_radial_272_3009" cx="0" cy="0" r="1" gradientUnits="userSpaceOnUse" gradientTransform="translate(36.0093 8.82327) scale(1.3229 1.19087)">
<stop stop-color="#FF4A4A"/>
<stop offset="1" stop-color="#FFAC68" stop-opacity="0"/>
</radialGradient>
<radialGradient id="paint2_radial_272_3009" cx="0" cy="0" r="1" gradientUnits="userSpaceOnUse" gradientTransform="translate(12.4804 6.54967) scale(1.40402 1.26389)">
<stop stop-color="#FF4A4A"/>
<stop offset="1" stop-color="#FFAC68" stop-opacity="0"/>
</radialGradient>
<radialGradient id="paint3_radial_272_3009" cx="0" cy="0" r="1" gradientUnits="userSpaceOnUse" gradientTransform="translate(16.0526 6.54967) scale(1.41047 1.2697)">
<stop stop-color="#FF4A4A"/>
<stop offset="1" stop-color="#FFAC68" stop-opacity="0"/>
</radialGradient>
</defs>
</svg>
