<svg width="50" height="50" viewBox="0 0 50 50" fill="none" xmlns="http://www.w3.org/2000/svg">
<path d="M47.7357 46.2969H12.2805C11.3572 46.2969 10.6086 47.1257 10.6086 48.1484C10.6086 49.1709 11.3571 49.9998 12.2805 49.9998H47.7357C48.6589 49.9998 49.4075 49.1709 49.4075 48.1484C49.4075 47.1257 48.6591 46.2969 47.7357 46.2969Z" fill="#1F6E6B"/>
<path d="M37.127 22.4929H1.67171C0.748419 22.4929 0 23.3218 0 24.3443C0 25.3668 0.748419 26.1956 1.67171 26.1956H37.1269C38.0502 26.1956 38.7987 25.3668 38.7987 24.3443C38.7987 23.3218 38.0503 22.4929 37.127 22.4929Z" fill="#1F6E6B"/>
<path d="M14.2362 3.07788H15.4946V0.961922H14.2362V3.07788Z" fill="#C4BCB5"/>
<path d="M13.651 0H16.0805C16.5601 0 16.9489 0.430595 16.9489 0.961734C16.9489 1.49287 16.5601 1.92347 16.0805 1.92347H13.651C13.1714 1.92347 12.7826 1.49287 12.7826 0.961734C12.7826 0.430595 13.1714 0 13.651 0Z" fill="#D92A1A"/>
<path d="M13.8195 1.92358L15.8929 1.92358V0.000116467L13.8195 0.000116467V1.92358Z" fill="white"/>
<path opacity="0.14" d="M15.4949 2.55896L14.2365 1.92334H15.4949V2.55896Z" fill="black"/>
<path d="M1.24347 14.0959C1.26557 12.8567 2.0482 11.794 3.13978 11.5209L7.58806 10.4083C8.26279 10.2396 8.84871 9.77927 9.21568 9.12981L11.3965 5.26933H11.1854C11.0698 5.26933 10.9761 5.16558 10.9761 5.03749V2.8529C10.9761 2.72481 11.0698 2.62106 11.1854 2.62106H17.5108V2.23899C17.5108 2.12402 17.595 2.03076 17.6988 2.03076H35.2206C35.5865 2.03076 35.8832 2.35935 35.8832 2.76459V4.63254C35.8832 5.0251 35.9405 5.41504 36.0526 5.7875L36.9289 8.69674C37.2096 9.62831 37.3526 10.6039 37.3526 11.5859V19.3882C37.3526 20.4455 36.5786 21.3026 35.6239 21.3026H32.3444C32.3444 19.2937 30.8739 17.6652 29.06 17.6652C27.246 17.6652 25.7755 19.2937 25.7755 21.3026H11.3227C11.3227 19.2937 9.85213 17.6652 8.03819 17.6652C6.22425 17.6652 4.75372 19.2937 4.75372 21.3026H2.54268C1.75899 21.3026 1.12794 20.5899 1.14347 19.7221L1.24347 14.0959Z" fill="white"/>
<path d="M10.5186 3.14125L10.9754 2.93506V4.95368L10.5186 4.74749C10.4029 4.69532 10.3273 4.57059 10.3273 4.4323V3.45643C10.3273 3.318 10.4029 3.19341 10.5186 3.14125Z" fill="#D92A1A"/>
<path opacity="0.14" d="M17.5166 2.62109V5.26936H16.4974L17.5166 2.62109Z" fill="black"/>
<path d="M1.22694 15.0259H1.83523C2.08891 15.0259 2.2947 15.2536 2.2947 15.5347V17.4739C2.2947 17.7549 2.08904 17.9828 1.83523 17.9828H1.17444L1.22694 15.0259Z" fill="#FFC547"/>
<path d="M37.3525 14.3629H1.23877L1.24351 14.0958C1.25456 13.4772 1.45508 12.9028 1.7889 12.4485H37.3526V14.3629H37.3525Z" fill="#D92A1A"/>
<path d="M29.0601 24.6626C30.7257 24.6626 32.076 23.1673 32.076 21.3227C32.076 19.478 30.7257 17.9827 29.0601 17.9827C27.3945 17.9827 26.0442 19.478 26.0442 21.3227C26.0442 23.1673 27.3945 24.6626 29.0601 24.6626Z" fill="#2B2928"/>
<path d="M29.06 23.8992C30.3449 23.8992 31.3865 22.7457 31.3865 21.3227C31.3865 19.8997 30.3449 18.7461 29.06 18.7461C27.775 18.7461 26.7334 19.8997 26.7334 21.3227C26.7334 22.7457 27.775 23.8992 29.06 23.8992Z" fill="#171515"/>
<path d="M29.06 23.1358C29.9642 23.1358 30.6972 22.3241 30.6972 21.3227C30.6972 20.3213 29.9642 19.5095 29.06 19.5095C28.1557 19.5095 27.4227 20.3213 27.4227 21.3227C27.4227 22.3241 28.1557 23.1358 29.06 23.1358Z" fill="#B0A8A2"/>
<path d="M29.06 22.3724C29.5835 22.3724 30.0078 21.9025 30.0078 21.3227C30.0078 20.7429 29.5835 20.2729 29.06 20.2729C28.5364 20.2729 28.1121 20.7429 28.1121 21.3227C28.1121 21.9025 28.5364 22.3724 29.06 22.3724Z" fill="#C4C0BC"/>
<path d="M8.03801 24.6626C9.70365 24.6626 11.0539 23.1673 11.0539 21.3227C11.0539 19.478 9.70365 17.9827 8.03801 17.9827C6.37237 17.9827 5.02209 19.478 5.02209 21.3227C5.02209 23.1673 6.37237 24.6626 8.03801 24.6626Z" fill="#2B2928"/>
<path d="M8.03788 23.8992C9.32281 23.8992 10.3644 22.7457 10.3644 21.3227C10.3644 19.8997 9.32281 18.7461 8.03788 18.7461C6.75295 18.7461 5.7113 19.8997 5.7113 21.3227C5.7113 22.7457 6.75295 23.8992 8.03788 23.8992Z" fill="#171515"/>
<path d="M8.0386 23.1358C8.94281 23.1358 9.67583 22.3241 9.67583 21.3227C9.67583 20.3213 8.94281 19.5095 8.0386 19.5095C7.13439 19.5095 6.40137 20.3213 6.40137 21.3227C6.40137 22.3241 7.13439 23.1358 8.0386 23.1358Z" fill="#B0A8A2"/>
<path d="M8.03859 22.3724C8.5621 22.3724 8.98648 21.9025 8.98648 21.3227C8.98648 20.7429 8.5621 20.2729 8.03859 20.2729C7.51508 20.2729 7.0907 20.7429 7.0907 21.3227C7.0907 21.9025 7.51508 22.3724 8.03859 22.3724Z" fill="#C4C0BC"/>
<path d="M36.9091 15.5674H37.3521V18.1518H36.9091C36.6645 18.1518 36.4661 17.9322 36.4661 17.6612V16.0579C36.4661 15.7871 36.6645 15.5674 36.9091 15.5674Z" fill="#FFC547"/>
<path d="M10.5031 10.9715H16.9112C17.2066 10.9715 17.446 10.7063 17.446 10.3793V6.79044C17.446 6.4633 17.2065 6.19824 16.9112 6.19824H12.596C12.3268 6.19824 12.0773 6.35401 11.938 6.60902L10.0456 10.0727C9.82995 10.4675 10.0865 10.9715 10.5031 10.9715Z" fill="#A6E4FC"/>
<path d="M19.1663 6.19824H24.3013C24.7286 6.19824 25.0751 6.58192 25.0751 7.0552V10.1147C25.0751 10.588 24.7286 10.9716 24.3013 10.9716H19.1663C18.7389 10.9716 18.3925 10.588 18.3925 10.1147V7.0552C18.3925 6.58177 18.7389 6.19824 19.1663 6.19824Z" fill="#A6E4FC"/>
<path d="M34.9536 16.4849H35.7027C35.9176 16.4849 36.0917 16.6776 36.0917 16.9156C36.0917 17.1534 35.9176 17.3463 35.7027 17.3463H34.9536C34.7388 17.3463 34.5647 17.1534 34.5647 16.9156C34.5646 16.6776 34.7388 16.4849 34.9536 16.4849Z" fill="#D92A1A"/>
<path d="M25.7757 21.3225H11.3218C11.3218 21.3158 11.3222 21.3092 11.3222 21.3025C11.3222 20.5863 11.1345 19.9191 10.8118 19.3562H26.2854C25.9626 19.9191 25.775 20.5863 25.775 21.3025C25.7753 21.3091 25.7757 21.3158 25.7757 21.3225Z" fill="#4A4A4A"/>
<path d="M1.18736 19.3562H5.26393C4.94117 19.9191 4.75354 20.5863 4.75354 21.3025C4.75354 21.3093 4.75393 21.3158 4.75407 21.3225H1.18736C0.873154 21.3225 0.618286 21.0404 0.618286 20.6923V19.9863C0.618286 19.6385 0.873154 19.3562 1.18736 19.3562Z" fill="#4A4A4A"/>
<path d="M32.3443 21.3025C32.3443 20.5863 32.1566 19.9191 31.8339 19.3562H37.2731C37.5874 19.3562 37.8421 19.6383 37.8421 19.9864V20.6924C37.8421 21.0404 37.5874 21.3227 37.2731 21.3227H32.3437C32.3437 21.316 32.3443 21.3093 32.3443 21.3025Z" fill="#4A4A4A"/>
<path opacity="0.14" d="M22.2374 4.97026H24.5022C24.7113 4.97026 24.8809 4.78258 24.8809 4.55089V3.33954C24.8809 3.108 24.7114 2.92017 24.5022 2.92017H22.2374C22.0284 2.92017 21.8588 3.108 21.8588 3.33954V4.55089C21.8588 4.78243 22.0282 4.97026 22.2374 4.97026Z" fill="black"/>
<path opacity="0.14" d="M30.1896 4.97026H32.4543C32.6634 4.97026 32.833 4.78258 32.833 4.55089V3.33954C32.833 3.108 32.6634 2.92017 32.4543 2.92017H30.1896C29.9805 2.92017 29.8109 3.108 29.8109 3.33954V4.55089C29.8109 4.78243 29.9805 4.97026 30.1896 4.97026Z" fill="black"/>
<path opacity="0.14" d="M26.1564 4.97026H28.4211C28.6302 4.97026 28.7998 4.78258 28.7998 4.55089V3.33954C28.7998 3.108 28.6303 2.92017 28.4211 2.92017H26.1564C25.9473 2.92017 25.7777 3.108 25.7777 3.33954V4.55089C25.7777 4.78243 25.9473 4.97026 26.1564 4.97026Z" fill="black"/>
<path d="M29.7246 7.79849L30.3095 6.91005L31.1754 7.60906V6.43604H32.1683V7.60906L33.0342 6.91005L33.6191 7.79849L32.5146 8.69013L33.6191 9.58163L33.0342 10.4702L32.1683 9.77121V10.9716H31.1754V9.77121L30.3095 10.4702L29.7246 9.58163L30.8291 8.69013L29.7246 7.79849Z" fill="#D92A1A"/>
<path d="M14.8216 30.8393C14.8216 30.8393 14.5172 32.1949 14.7018 32.6613C15.0381 33.5113 15.9043 33.76 15.9871 33.5937C16.1083 33.3505 15.3875 32.937 15.2923 32.6205C15.1874 32.2719 15.4614 32.0516 15.6466 32.2719C15.7794 32.4298 15.9887 32.8003 16.1398 32.7135C16.2753 32.6357 16.1848 32.324 16.0977 32.0435C16.0106 31.7631 15.72 30.8286 15.72 30.8286L14.8216 30.8393Z" fill="#FFA675"/>
<path d="M20.9036 19.9746H18.5343V24.6488H20.9036V19.9746Z" fill="white"/>
<path d="M19.0116 17.4717V20.1772C19.0116 20.372 19.3279 20.5298 19.7182 20.5298C20.1084 20.5298 20.4247 20.3719 20.4247 20.1772V17.4717H19.0116Z" fill="#FFA675"/>
<path d="M19.0116 18.8508V19.1974C19.0116 19.1974 19.2178 19.4321 19.6354 19.5784C20.0987 19.7406 20.4247 19.6954 20.4247 19.6954V18.5649L19.0116 18.8508Z" fill="#C77244"/>
<path d="M21.9708 16.4348C22.0815 16.3246 22.2248 16.2535 22.3852 16.249C22.7429 16.2388 23.0404 16.5517 23.0496 16.948C23.0588 17.3442 22.7763 17.6737 22.4185 17.6839C22.2581 17.6884 22.1116 17.6256 21.9961 17.522L21.9708 16.4348Z" fill="#FFA675"/>
<path d="M22.3508 16.495C22.2424 16.4981 22.1455 16.5462 22.0708 16.6206L22.0722 16.6836C22.13 16.6373 22.1971 16.6042 22.2738 16.602C22.4776 16.5962 22.647 16.7744 22.6522 17.0001C22.6575 17.2257 22.4966 17.4133 22.2928 17.4192C22.2161 17.4214 22.1475 17.3922 22.0876 17.3492L22.0878 17.3555C22.1659 17.4256 22.2649 17.468 22.3733 17.4649C22.6151 17.4581 22.8061 17.2353 22.7999 16.9675C22.7938 16.6996 22.5926 16.4882 22.3508 16.495Z" fill="#C77244"/>
<path d="M17.3532 16.4348C17.2425 16.3246 17.0993 16.2535 16.9389 16.249C16.5811 16.2388 16.2836 16.5517 16.2744 16.948C16.2652 17.3442 16.5477 17.6737 16.9056 17.6839C17.066 17.6884 17.2124 17.6256 17.3279 17.522L17.3532 16.4348Z" fill="#FFA675"/>
<path d="M16.9728 16.495C17.0812 16.4981 17.178 16.5462 17.2528 16.6206L17.2513 16.6836C17.1936 16.6373 17.1265 16.6042 17.0498 16.602C16.8459 16.5962 16.6766 16.7744 16.6713 17.0001C16.6661 17.2257 16.827 17.4133 17.0308 17.4192C17.1075 17.4214 17.1761 17.3922 17.2359 17.3492L17.2358 17.3555C17.1577 17.4256 17.0587 17.468 16.9503 17.4649C16.7084 17.4581 16.5175 17.2353 16.5237 16.9675C16.5299 16.6996 16.7311 16.4882 16.9728 16.495Z" fill="#C77244"/>
<path d="M19.6624 12.4868C18.0675 12.4868 16.7747 13.6195 16.7747 15.3857C16.7747 16.143 17.0668 17.2838 17.3147 17.8392C17.6587 18.6096 18.3931 19.2551 19.6623 19.2551C20.9315 19.2551 21.666 18.6096 22.0099 17.8392C22.2579 17.2838 22.5499 16.143 22.5499 15.3857C22.55 13.6195 21.2573 12.4868 19.6624 12.4868Z" fill="#FFA675"/>
<path d="M16.9362 16.6188C16.9362 16.6188 17.325 15.9692 17.4439 15.0485C18.4194 15.1923 20.6944 15.3181 21.787 14.0598C21.8903 15.8387 22.3891 16.6188 22.3891 16.6188L22.6761 16.3157C22.6761 16.3157 23.4237 12.8613 21.5653 12.5888C20.6594 11.2329 16.889 11.4924 16.6216 14.4594C16.5579 15.167 16.685 16.2988 16.685 16.2988L16.9362 16.6188Z" fill="#2E1707"/>
<path d="M19.7135 18.8618C20.3279 18.8618 20.8261 18.3101 20.8261 17.6296H18.6008C18.6008 18.3101 19.099 18.8618 19.7135 18.8618Z" fill="#2E1707"/>
<path d="M18.6864 18.1032H20.7407C20.7956 17.9574 20.8261 17.7975 20.8261 17.6296H18.6008C18.6008 17.7975 18.6315 17.9574 18.6864 18.1032Z" fill="#FEFEFE"/>
<path d="M18.6365 16.3901C18.6365 16.5522 18.5178 16.6837 18.3713 16.6837C18.2249 16.6837 18.1062 16.5522 18.1062 16.3901C18.1062 16.2279 18.2249 16.0964 18.3713 16.0964C18.5178 16.0964 18.6365 16.228 18.6365 16.3901Z" fill="#2E1707"/>
<path d="M18.8105 16.0852C18.7769 16.0852 18.744 16.0673 18.7242 16.0341C18.7184 16.0245 18.5915 15.8219 18.371 15.8219C18.1477 15.8219 18.0058 16.0351 18.0044 16.0372C17.9709 16.0883 17.9062 16.1001 17.8598 16.0635C17.8134 16.0265 17.8025 15.9556 17.8355 15.904C17.8437 15.8913 18.0389 15.5923 18.371 15.5923C18.7054 15.5923 18.8893 15.8944 18.8971 15.9072C18.9286 15.9601 18.9155 16.0313 18.8677 16.0663C18.8501 16.0791 18.8302 16.0852 18.8105 16.0852Z" fill="#2E1707"/>
<path d="M21.2245 16.3901C21.2245 16.5522 21.1058 16.6837 20.9593 16.6837C20.8129 16.6837 20.6942 16.5522 20.6942 16.3901C20.6942 16.2279 20.8129 16.0964 20.9593 16.0964C21.1058 16.0966 21.2245 16.228 21.2245 16.3901Z" fill="#2E1707"/>
<path d="M21.3981 16.0852C21.3646 16.0852 21.3317 16.0673 21.3117 16.0341C21.3059 16.0245 21.1789 15.8219 20.9585 15.8219C20.7353 15.8219 20.5933 16.0351 20.592 16.0372C20.5584 16.0883 20.4937 16.1001 20.4474 16.0635C20.4009 16.0265 20.39 15.9556 20.423 15.904C20.4312 15.8913 20.6264 15.5923 20.9585 15.5923C21.2929 15.5923 21.4768 15.8944 21.4846 15.9072C21.5162 15.9601 21.503 16.0313 21.4553 16.0663C21.4376 16.0791 21.4178 16.0852 21.3981 16.0852Z" fill="#2E1707"/>
<path d="M19.7138 16.9666C19.5959 16.9666 19.3992 17.1486 19.3992 17.1917C19.3992 17.244 19.4857 17.2593 19.7138 17.2593C19.9417 17.2593 20.0284 17.2439 20.0284 17.1917C20.0284 17.1484 19.8304 16.9666 19.7138 16.9666Z" fill="#C77244"/>
<path d="M16.9115 30.6428V31.5024V33.54V47.6474C16.9115 47.7532 17.4245 47.8391 18.0574 47.8391C18.6903 47.8391 19.2033 47.7532 19.2033 47.6474C19.2033 47.6391 19.5772 34.0424 19.7837 34.0424C19.9493 34.0424 20.2765 47.6391 20.2765 47.6474C20.2765 47.7532 20.7895 47.8391 21.4224 47.8391C22.0553 47.8391 22.5683 47.7532 22.5683 47.6474V33.54V31.5024V30.6428H16.9115Z" fill="#53A8CA"/>
<path d="M23.4547 30.643C23.946 30.6388 24.2529 30.6405 24.7442 30.6331C24.7309 28.2821 24.7042 25.9433 24.3026 23.6614C23.8209 23.7686 23.3389 23.8744 22.8568 23.9785C23.2406 26.1614 23.4425 28.3925 23.4547 30.643Z" fill="white"/>
<path d="M15.9135 31.1054C15.4222 31.1012 15.1153 31.1029 14.624 31.0955C14.6373 28.7445 14.664 26.4057 15.0656 24.1238C15.5473 24.231 16.0293 24.3368 16.5114 24.4409C16.1276 26.6238 15.9257 28.8549 15.9135 31.1054Z" fill="white"/>
<path d="M24.6389 25.0183C24.6389 25.0183 24.5556 23.6101 24.0757 22.3114C23.2861 20.1745 21.0782 19.9734 20.746 19.9734C20.746 19.9734 20.0857 23.7105 19.7236 23.8881C19.3615 23.7103 18.7012 19.9734 18.7012 19.9734C17.9511 19.9734 16.1612 20.1745 15.3715 22.3114C14.8916 23.6101 14.8083 25.0183 14.8083 25.0183L16.5311 25.2739C16.5311 25.2739 16.6276 24.0931 16.9111 23.1978C16.8902 25.0672 16.7728 32.2725 16.7728 32.2725H22.7132C22.7132 32.2725 22.4525 25.1124 22.4316 23.2431C22.7723 24.2843 22.9161 25.2739 22.9161 25.2739L24.6389 25.0183Z" fill="#68BEE2"/>
<path d="M25.6501 32.0546C25.5617 31.9418 25.4339 31.8786 25.3046 31.8716C25.1472 31.8631 23.2401 31.8631 23.0828 31.8716C22.9535 31.8784 22.8256 31.9418 22.7373 32.0546C22.4818 32.3807 22.5247 33.1106 22.543 33.3267L23.111 33.2681C23.0861 32.9696 23.115 32.621 23.1635 32.4967C23.3667 32.4884 25.0211 32.4884 25.2243 32.4967C25.2727 32.621 25.3015 32.9697 25.2768 33.2681L25.8447 33.3267C25.8627 33.1106 25.9056 32.3807 25.6501 32.0546Z" fill="#E74637"/>
<path d="M24.7441 30.6331V31.8791C24.7441 32.3742 24.3816 32.7757 23.9345 32.7757C23.7324 32.7757 23.5377 32.692 23.3886 32.5411L23.3416 32.4934H23.389C23.5454 32.4934 23.6723 32.353 23.6723 32.1797C23.6723 32.0064 23.5454 31.866 23.389 31.866H23.2023L23.4549 30.6428L24.7441 30.6331Z" fill="#FFA675"/>
<path d="M26.6792 37.8863L21.3057 37.8726C20.996 37.8718 20.7456 37.5931 20.7462 37.2502L20.7537 33.6357C20.7544 33.2927 21.0061 33.0154 21.3157 33.0161L26.6892 33.0298C26.9988 33.0305 27.2494 33.3093 27.2487 33.6522L27.2412 37.2667C27.2405 37.6097 26.9888 37.8871 26.6792 37.8863Z" fill="#912C23"/>
<path d="M27.0838 37.8875L21.7102 37.8738C21.4005 37.8731 21.1501 37.5943 21.1508 37.2514L21.1583 33.6369C21.1589 33.2939 21.4106 33.0166 21.7202 33.0173L27.0938 33.031C27.4034 33.0318 27.6539 33.3105 27.6532 33.6534L27.6457 37.2679C27.6451 37.6108 27.3935 37.8882 27.0838 37.8875Z" fill="#E73020"/>
<path d="M25.6391 35.4337C25.6512 36.1902 25.1072 36.8145 24.4241 36.8279C23.7409 36.8413 23.1772 36.2389 23.1651 35.4823C23.153 34.7258 23.697 34.1015 24.3801 34.0881C25.0633 34.0747 25.627 34.6771 25.6391 35.4337Z" fill="white"/>
<path d="M23.5518 35.082L23.7991 34.6918L24.1794 34.9875L24.1712 34.4789L24.6018 34.4705L24.6099 34.979L24.9804 34.6685L25.2402 35.0488L24.7675 35.4447L25.2525 35.8218L25.0052 36.2121L24.6249 35.9164L24.6333 36.4368L24.2028 36.4454L24.1945 35.9249L23.8239 36.2352L23.5641 35.8551L24.0368 35.4592L23.5518 35.082Z" fill="#D92A1A"/>
<path d="M17.7117 46.3267C16.8588 46.3267 16.1674 47.0924 16.1674 48.0369V48.0541H19.256V48.0369C19.256 47.0924 18.5646 46.3267 17.7117 46.3267Z" fill="white"/>
<path d="M21.7614 46.3267C20.9085 46.3267 20.217 47.0924 20.217 48.0369V48.0541H23.3057V48.0369C23.3057 47.0924 22.6143 46.3267 21.7614 46.3267Z" fill="white"/>
<path d="M25.7794 30.7412C25.7794 30.7412 25.5183 32.1075 25.7028 32.5739C26.0391 33.4239 26.9053 33.6726 26.9882 33.5063C27.1094 33.2631 26.3886 32.8496 26.2933 32.5331C26.1885 32.1845 26.4624 31.9644 26.6477 32.1845C26.7804 32.3424 26.9898 32.7129 27.1408 32.6261C27.2763 32.5482 27.1858 32.2366 27.0987 31.9561C27.0116 31.6757 26.729 30.7412 26.729 30.7412H25.7794Z" fill="#FFA370"/>
<path d="M26.7288 30.7411C26.6015 29.677 26.7692 29.1597 27.0044 27.4213C27.2967 25.2631 27.9883 23.902 27.9952 23.8884L27.5356 23.5967L27.0765 23.304C27.0442 23.3662 26.2805 24.8553 25.9567 27.2475C25.6997 29.1466 25.7837 30.4728 25.7792 30.7411H26.7288Z" fill="#FFA370"/>
<path d="M35.4163 30.7412C35.4163 30.7412 35.6773 32.1075 35.4928 32.5739C35.1565 33.4239 34.2903 33.6726 34.2074 33.5063C34.0863 33.2631 34.807 32.8496 34.9023 32.5331C35.0072 32.1845 34.7332 31.9644 34.548 32.1845C34.4152 32.3424 34.2059 32.7129 34.0548 32.6261C33.9193 32.5482 34.0098 32.2366 34.0969 31.9561C34.184 31.6757 34.4667 30.7412 34.4667 30.7412H35.4163Z" fill="#FFA370"/>
<path d="M34.4669 30.7411C34.5941 29.677 34.4265 29.1597 34.1912 27.4213C33.899 25.2631 33.2074 23.902 33.2004 23.8884L33.66 23.5967L34.1191 23.304C34.1515 23.3662 34.915 24.8553 35.239 27.2475C35.496 29.1466 35.412 30.4728 35.4165 30.7411H34.4669Z" fill="#FFA370"/>
<path d="M33.3855 16.0005C33.3855 16.0005 33.8984 20.4964 33.5424 22.7774C33.4259 23.5243 33.1917 24.1389 33.1917 24.1389L31.3057 22.699L30.3993 21.2706L33.3855 16.0005Z" fill="#63320F"/>
<path d="M27.3299 16.0005C27.3299 16.0005 26.817 20.4964 27.173 22.7774C27.2895 23.5243 27.5237 24.1389 27.5237 24.1389L29.4097 22.699L30.3161 21.2706L27.3299 16.0005Z" fill="#63320F"/>
<path d="M33.7166 34.3012C33.7702 32.7473 33.3336 32.636 33.3336 32.636H30.6351H27.9365C27.9365 32.636 27.5 32.7472 27.5535 34.3012C27.6247 36.3663 27.8698 37.002 27.948 38.8852C28.1251 43.1584 27.7906 47.8362 27.7906 47.8362C27.7906 47.9426 28.3065 47.8416 28.943 47.8416C29.5794 47.8416 30.0953 47.9426 30.0953 47.8362C30.0953 47.8317 30.2388 44.4981 30.2393 40.6807C30.2397 37.4448 30.3886 34.778 30.6349 34.778C30.8456 34.778 31.0824 37.3571 31.0828 40.5932C31.0834 44.4105 31.1745 47.8317 31.1745 47.8362C31.1745 47.9426 31.6905 47.8416 32.3269 47.8416C32.9634 47.8416 33.4793 47.9426 33.4793 47.8362C33.4793 47.8362 33.1448 43.1584 33.3219 38.8852C33.4002 37.002 33.6455 36.3663 33.7166 34.3012Z" fill="#53A8CA"/>
<path d="M31.8004 21.3042H29.3121V26.2133H31.8004V21.3042Z" fill="white"/>
<path d="M29.7938 18.6206V21.3416C29.7938 21.5374 30.112 21.6963 30.5045 21.6963C30.897 21.6963 31.2151 21.5374 31.2151 21.3416V18.6206H29.7938Z" fill="#FFA370"/>
<path d="M29.7938 20.0077V20.3563C29.7938 20.3563 30.0012 20.5923 30.4212 20.7395C30.8871 20.9026 31.2151 20.8571 31.2151 20.8571V19.7202L29.7938 20.0077Z" fill="#E08351"/>
<path d="M30.4486 13.6074C28.8447 13.6074 27.5446 14.7466 27.5446 16.5228C27.5446 17.2845 27.8382 18.4317 28.0877 18.9902C28.4336 19.765 29.1723 20.4142 30.4488 20.4142C31.7252 20.4142 32.4638 19.765 32.8097 18.9902C33.059 18.4317 33.3528 17.2845 33.3528 16.5228C33.3527 14.7466 32.0526 13.6074 30.4486 13.6074Z" fill="#FFA370"/>
<path d="M30.5007 19.9089C31.0088 19.9089 31.4208 19.4527 31.4208 18.8899H29.5807C29.5807 19.4527 29.9925 19.9089 30.5007 19.9089Z" fill="#2E1707"/>
<path d="M29.6513 19.2816H31.3502C31.3956 19.1609 31.4208 19.0288 31.4208 18.8899H29.5807C29.5807 19.0288 29.606 19.1609 29.6513 19.2816Z" fill="#FEFEFE"/>
<path d="M29.4172 17.533C29.4172 17.6961 29.2978 17.8282 29.1506 17.8282C29.0034 17.8282 28.884 17.6961 28.884 17.533C28.884 17.37 29.0034 17.2378 29.1506 17.2378C29.2977 17.2378 29.4172 17.37 29.4172 17.533Z" fill="#2E1707"/>
<path d="M29.5924 17.2263C29.5587 17.2263 29.5257 17.2083 29.5056 17.1749C29.4998 17.1653 29.3721 16.9616 29.1504 16.9616C28.9258 16.9616 28.7831 17.1759 28.7817 17.1781C28.7481 17.2295 28.6829 17.2415 28.6364 17.2046C28.5896 17.1675 28.5786 17.0961 28.6119 17.0441C28.62 17.0312 28.8165 16.7305 29.1504 16.7305C29.4867 16.7305 29.6717 17.0341 29.6795 17.0471C29.7112 17.1003 29.6979 17.172 29.6499 17.2071C29.632 17.2201 29.6121 17.2263 29.5924 17.2263Z" fill="#2E1707"/>
<path d="M32.0197 17.533C32.0197 17.6961 31.9004 17.8282 31.7532 17.8282C31.6059 17.8282 31.4866 17.6961 31.4866 17.533C31.4866 17.37 31.6059 17.2378 31.7532 17.2378C31.9004 17.2378 32.0197 17.37 32.0197 17.533Z" fill="#2E1707"/>
<path d="M32.1949 17.2263C32.1613 17.2263 32.1282 17.2083 32.1081 17.1749C32.1023 17.1653 31.9747 16.9616 31.753 16.9616C31.5284 16.9616 31.3856 17.1759 31.3843 17.1781C31.3506 17.2295 31.2855 17.2415 31.2389 17.2046C31.1922 17.1675 31.1811 17.0961 31.2144 17.0441C31.2227 17.0312 31.419 16.7305 31.753 16.7305C32.0893 16.7305 32.2743 17.0341 32.2821 17.0471C32.3138 17.1003 32.3005 17.172 32.2524 17.2071C32.2347 17.2201 32.2147 17.2263 32.1949 17.2263Z" fill="#2E1707"/>
<path d="M30.5008 18.1125C30.3821 18.1125 30.1844 18.2956 30.1844 18.339C30.1844 18.3916 30.2716 18.407 30.5008 18.407C30.73 18.407 30.8171 18.3916 30.8171 18.339C30.8171 18.2956 30.618 18.1125 30.5008 18.1125Z" fill="#E08351"/>
<path d="M32.9393 27.3377C33.2643 26.0873 33.2652 25.3954 33.2205 24.3206C33.48 25.5491 33.74 26.7525 33.74 26.7525L35.5155 26.3354C35.5155 26.3354 35.2872 25.0471 34.7833 23.6834C33.9539 21.4392 32.0771 21.3032 31.7281 21.3032C31.7281 21.3032 30.9287 23.7386 30.6355 24.0997C30.3423 23.7386 29.5429 21.3032 29.5429 21.3032C29.1939 21.3032 27.3171 21.439 26.4878 23.6834C25.9838 25.0473 25.637 26.3477 25.637 26.3477L27.531 26.7526C27.531 26.7526 27.791 25.5493 28.0505 24.3207C28.0058 25.3955 28.0067 26.0873 28.3317 27.3378C28.6656 28.6225 27.4785 29.3752 27.4352 33.6085C28.1576 33.6213 29.4292 33.6206 30.6355 33.6155C31.8418 33.6206 33.1134 33.6213 33.8358 33.6085C33.7925 29.3752 32.6054 28.6225 32.9393 27.3377Z" fill="#68BEE2"/>
<path d="M28.7563 15.6361C28.7563 15.6361 30.3688 16.2198 31.3056 16.4936C31.9085 16.6698 32.3096 16.5402 32.5723 16.8637C32.7909 17.133 32.5723 20.6433 32.5723 20.6433L33.5156 17.3767C33.5156 17.3767 33.4476 16.7871 33.3854 16.0002C33.0712 12.0231 27.7053 12.2425 27.3258 16.0068C27.2707 16.5536 27.3687 17.5563 27.3687 17.5563L28.3078 20.7341C28.3078 20.7341 27.7813 17.147 28.18 16.6526C28.6217 16.1051 28.7563 15.6361 28.7563 15.6361Z" fill="#63320F"/>
<path d="M28.6104 46.3264C27.7575 46.3264 27.066 47.0922 27.066 48.0367V48.0539H30.1547V48.0367C30.1547 47.0922 29.4633 46.3264 28.6104 46.3264Z" fill="white"/>
<path d="M32.6597 46.3264C31.8068 46.3264 31.1154 47.0922 31.1154 48.0367V48.0539H34.204V48.0367C34.204 47.0922 33.5127 46.3264 32.6597 46.3264Z" fill="white"/>
<path d="M36.1246 30.8395C36.1246 30.8395 35.8201 32.1951 36.0047 32.6615C36.341 33.5115 37.2072 33.7602 37.2901 33.594C37.4113 33.3508 36.6905 32.9372 36.5953 32.6207C36.4904 32.2722 36.7643 32.0519 36.9497 32.2722C37.0825 32.43 37.2918 32.8006 37.4429 32.7137C37.5784 32.6359 37.4879 32.3242 37.4008 32.0437C37.3137 31.7633 37.0232 30.8289 37.0232 30.8289L36.1246 30.8395Z" fill="#FFA370"/>
<path d="M38.2004 30.6431V31.5027V33.5402V47.6477C38.2004 47.7535 38.7135 47.8393 39.3464 47.8393C39.9793 47.8393 40.4923 47.7535 40.4923 47.6477C40.4923 47.6394 40.8661 34.5594 41.0727 34.5594C41.2382 34.5594 41.5654 47.6392 41.5654 47.6477C41.5654 47.7535 42.0785 47.8393 42.7113 47.8393C43.3442 47.8393 43.8573 47.7535 43.8573 47.6477V33.5402V31.5027V30.6431H38.2004Z" fill="#53A8CA"/>
<path d="M39.0038 46.3269C38.1509 46.3269 37.4595 47.0926 37.4595 48.0372V48.0544H40.5481V48.0372C40.5481 47.0926 39.8568 46.3269 39.0038 46.3269Z" fill="white"/>
<path d="M43.0534 46.3269C42.2005 46.3269 41.509 47.0926 41.509 48.0372V48.0544H44.5977V48.0372C44.5977 47.0926 43.9063 46.3269 43.0534 46.3269Z" fill="white"/>
<path d="M49.7671 18.2329C49.6768 18.618 49.4792 19.0471 49.5476 18.5533C49.616 18.0595 49.6403 17.5464 49.4559 17.5957C49.2245 17.6574 49.1313 19.0668 49.0345 18.4585C48.9579 17.9777 48.9625 17.2054 48.7191 17.3513C48.4756 17.4972 48.7167 18.676 48.5522 18.6458C48.3878 18.6158 48.2447 17.4348 47.9318 17.5693C47.6426 17.6936 48.2608 19.6303 47.9425 19.344C47.6242 19.0576 47.2943 18.8437 47.233 19.0145C47.1717 19.1854 47.5155 19.5551 47.6339 19.8215C47.7072 19.9866 48.0687 20.4039 48.0764 20.4178C47.8954 21.5946 47.4672 23.0249 47.2472 23.3461C46.9903 23.7212 46.8285 23.7073 46.7753 23.7031C46.302 23.6632 45.5693 22.6605 45.2224 21.952L44.5895 22.3307L43.9561 22.7084C44.1553 23.1181 45.2175 25.2916 46.6633 25.2916C47.128 25.2916 47.8474 25.2403 48.3216 24.2471C48.808 23.2281 49.2391 20.4583 49.2862 20.3755C49.4354 20.1132 49.9121 19.3801 49.9802 18.6456C50.0734 17.6421 49.8122 18.0405 49.7671 18.2329Z" fill="#FFA370"/>
<path d="M42.1916 19.9746H39.8223V31.5424H42.1916V19.9746Z" fill="#68BEE2"/>
<path d="M40.3 17.4719V20.1775C40.3 20.3723 40.6164 20.5301 41.0066 20.5301C41.3969 20.5301 41.7132 20.3721 41.7132 20.1775V17.4719H40.3Z" fill="#FFCEA3"/>
<path d="M40.3 17.4719V20.1775C40.3 20.3723 40.6164 20.5301 41.0066 20.5301C41.3969 20.5301 41.7132 20.3721 41.7132 20.1775V17.4719H40.3Z" fill="#FFA370"/>
<path d="M40.3 18.8511V19.1976C40.3 19.1976 40.5062 19.4323 40.9239 19.5786C41.3872 19.7408 41.7132 19.6957 41.7132 19.6957V18.5652L40.3 18.8511Z" fill="#E08351"/>
<path d="M43.2603 16.4351C43.3709 16.3249 43.5142 16.2538 43.6746 16.2493C44.0324 16.2391 44.3299 16.5519 44.3391 16.9483C44.3483 17.3445 44.0658 17.6739 43.7079 17.6841C43.5475 17.6887 43.401 17.6259 43.2855 17.5223L43.2603 16.4351Z" fill="#FFA370"/>
<path d="M43.6405 16.4953C43.5321 16.4983 43.4352 16.5464 43.3605 16.6209L43.3619 16.6838C43.4197 16.6375 43.4868 16.6044 43.5635 16.6022C43.7673 16.5964 43.9367 16.7746 43.9419 17.0003C43.9472 17.2259 43.7863 17.4136 43.5824 17.4194C43.5057 17.4216 43.4372 17.3925 43.3773 17.3495L43.3774 17.3557C43.4556 17.4258 43.5545 17.4682 43.663 17.4652C43.9048 17.4583 44.0957 17.2355 44.0895 16.9677C44.0835 16.6999 43.8823 16.4884 43.6405 16.4953Z" fill="#E08351"/>
<path d="M38.6423 16.4351C38.5316 16.3249 38.3883 16.2538 38.2279 16.2493C37.8702 16.2391 37.5727 16.5519 37.5635 16.9483C37.5542 17.3445 37.8367 17.6739 38.1946 17.6841C38.355 17.6887 38.5015 17.6259 38.6171 17.5223L38.6423 16.4351Z" fill="#FFA370"/>
<path d="M38.2621 16.4953C38.3705 16.4983 38.4674 16.5464 38.5421 16.6209L38.5406 16.6838C38.4829 16.6375 38.4158 16.6044 38.3391 16.6022C38.1354 16.5964 37.9659 16.7746 37.9606 17.0003C37.9554 17.2259 38.1163 17.4136 38.3201 17.4194C38.3968 17.4216 38.4654 17.3925 38.5252 17.3495L38.5251 17.3557C38.447 17.4258 38.348 17.4682 38.2396 17.4652C37.9977 17.4583 37.8068 17.2355 37.813 16.9677C37.8192 16.6999 38.0202 16.4884 38.2621 16.4953Z" fill="#E08351"/>
<path d="M40.9515 12.4871C39.3566 12.4871 38.0637 13.6197 38.0637 15.386C38.0637 16.1433 38.3558 17.2841 38.6037 17.8394C38.9478 18.6098 39.6821 19.2553 40.9513 19.2553C42.2206 19.2553 42.9549 18.6098 43.299 17.8394C43.547 17.2841 43.839 16.1433 43.839 15.386C43.8391 13.6197 42.5463 12.4871 40.9515 12.4871Z" fill="#FFA370"/>
<path d="M40.9512 18.8077C41.5115 18.8077 41.9659 18.3047 41.9659 17.6841H39.9366C39.9366 18.3047 40.3909 18.8077 40.9512 18.8077Z" fill="#2E1707"/>
<path d="M40.0145 18.116H41.8878C41.9378 17.9829 41.9657 17.8372 41.9657 17.6841H39.9366C39.9366 17.8372 39.9645 17.9831 40.0145 18.116Z" fill="#FEFEFE"/>
<path d="M40.9303 16.9668C40.8123 16.9668 40.6157 17.1488 40.6157 17.1919C40.6157 17.2442 40.7023 17.2595 40.9303 17.2595C41.1582 17.2595 41.2449 17.2441 41.2449 17.1919C41.2449 17.1487 41.0469 16.9668 40.9303 16.9668Z" fill="#E08351"/>
<path d="M40.2627 32.9913L39.9905 19.9736C39.2403 19.9736 37.3725 20.1415 36.6607 22.3117C36.0593 24.1457 35.8147 30.9597 35.8147 30.9597L37.3172 31.1826C37.3172 31.1826 37.9168 24.0933 38.2005 23.1982C38.1796 25.0676 37.9852 32.9913 37.9852 32.9913H40.2627Z" fill="white"/>
<path d="M47.853 20.4596C47.8326 20.7216 47.4132 23.1488 46.8295 23.411C46.3417 23.63 45.5951 22.1563 44.8116 21.147C43.8003 19.8441 42.3678 19.9738 42.0356 19.9738L41.7531 32.9914H44.1271C44.1271 32.9914 43.7525 25.0176 43.7316 23.1484C44.5198 24.2161 45.3476 25.1772 46.3829 25.4407C47.4138 25.7031 47.9405 25.1562 48.2663 24.6812C48.987 23.6301 49.3451 20.9068 49.367 20.6155L47.853 20.4596Z" fill="white"/>
<path d="M42.0382 19.9736L42.0241 20.498L41.9053 25.9744L42.66 23.9374C42.7471 23.7022 42.75 23.4392 42.6682 23.2018L42.4004 22.4257C42.2657 22.0352 42.3649 21.593 42.649 21.3177C42.9347 21.0407 43.0333 20.5951 42.8953 20.2031L42.8258 20.006C42.4591 19.955 42.1678 19.9735 42.0382 19.9736Z" fill="#D6D6D6"/>
<path d="M39.1831 20.0469L39.128 20.2033C38.9899 20.5951 39.0885 21.0409 39.3743 21.3179C39.6584 21.5933 39.7576 22.0354 39.6228 22.4259L39.3551 23.202C39.2731 23.4394 39.276 23.7025 39.3632 23.9376L40.1157 25.9683L40.0588 23.2461L39.9991 20.4981L39.9851 19.9736C39.783 19.9741 39.501 19.987 39.1831 20.0469Z" fill="#D6D6D6"/>
<path d="M43.9098 14.4815C43.6814 12.6937 42.2949 11.8532 40.9029 11.8394C39.5108 11.8532 38.1243 12.6937 37.8959 14.4815C37.8125 15.1342 37.9506 16.31 37.9506 16.31L38.4105 17.3145C38.4105 17.3145 38.2299 15.7185 38.5149 14.9127C38.8979 13.8294 39.5416 14.8688 40.903 14.8688C42.2687 14.8688 42.9081 13.8294 43.2912 14.9127C43.576 15.7185 43.3955 17.3145 43.3955 17.3145L43.8554 16.31C43.8551 16.3098 43.9933 15.134 43.9098 14.4815Z" fill="#2E1707"/>
<path d="M40.3006 19.7087C39.0536 20.1946 38.9525 21.9924 38.9515 22.0134L39.0756 22.0205C39.0765 22.0009 39.1698 20.3401 40.3006 19.8571V19.7087Z" fill="#83B4C9"/>
<path d="M43.7273 22.6683C43.5436 22.7208 43.384 22.7406 43.2474 22.7416C43.326 22.6616 43.3811 22.5869 43.4182 22.5276C43.4206 22.5238 43.4228 22.5198 43.4251 22.5161C43.4368 22.4967 43.4465 22.4795 43.4545 22.4642C43.4548 22.4636 43.4552 22.463 43.4555 22.4626C43.4751 22.425 43.4844 22.4004 43.486 22.3963L43.4856 22.3961C43.559 22.2125 43.5745 21.9873 43.5147 21.7642C43.4047 21.3544 43.078 21.0933 42.7591 21.1408C42.724 20.979 42.4986 20.1005 41.7136 19.7415V19.888C42.423 20.2369 42.6115 21.0379 42.6389 21.1743C42.3188 21.3063 42.153 21.744 42.2685 22.1743C42.3284 22.3974 42.4527 22.5768 42.6048 22.6863C42.608 22.6887 42.626 22.7023 42.658 22.7205C42.6639 22.724 42.6698 22.7271 42.6757 22.7303C42.683 22.7342 42.6909 22.7381 42.6993 22.7422C42.7114 22.7482 42.7235 22.754 42.7359 22.7593C42.7955 22.7853 42.8749 22.8127 42.9752 22.8314C42.8602 22.913 42.7168 22.9931 42.537 23.0602L42.569 23.1651C42.8124 23.0742 42.9935 22.9611 43.1284 22.8499C43.2963 22.8614 43.5036 22.8467 43.7523 22.7756L43.7273 22.6683ZM43.0803 22.6723C42.9922 22.7013 42.9013 22.6992 42.8144 22.6721C42.7517 22.6487 42.7088 22.6252 42.6849 22.6105C42.5407 22.5177 42.4207 22.3526 42.3644 22.1427C42.2603 21.7551 42.4122 21.3618 42.703 21.2661C42.9938 21.1704 43.3149 21.4079 43.4189 21.7956C43.476 22.0085 43.4556 22.2229 43.3777 22.389C43.3644 22.4159 43.3415 22.4575 43.3049 22.5091C43.2453 22.5854 43.1694 22.643 43.0803 22.6723Z" fill="#83B4C9"/>
<path d="M43.8846 22.8064L43.7426 22.8401C43.6958 22.8512 43.6496 22.8181 43.6396 22.7662L43.635 22.7422C43.625 22.6903 43.6547 22.6392 43.7017 22.6281L43.8437 22.5944C43.8905 22.5834 43.9367 22.6163 43.9467 22.6683L43.9514 22.6923C43.9613 22.7442 43.9314 22.7954 43.8846 22.8064Z" fill="#4988A3"/>
<path d="M42.4732 23.2709L42.6088 23.2132C42.6535 23.1941 42.6759 23.1386 42.6586 23.0891L42.6506 23.0661C42.6334 23.0165 42.5832 22.9917 42.5385 23.0108L42.403 23.0685C42.3582 23.0876 42.3359 23.1431 42.3531 23.1927L42.3611 23.2157C42.3784 23.2653 42.4285 23.29 42.4732 23.2709Z" fill="#4988A3"/>
<path d="M39.3856 22.3528C39.3856 22.5975 39.2065 22.7959 38.9855 22.7959C38.7645 22.7959 38.5853 22.5976 38.5853 22.3528C38.5853 22.1081 38.7644 21.9097 38.9855 21.9097C39.2065 21.9097 39.3856 22.1081 39.3856 22.3528Z" fill="#4988A3"/>
<path d="M39.2347 22.3529C39.2347 22.5049 39.1233 22.6282 38.9861 22.6282C38.8489 22.6282 38.7375 22.5049 38.7375 22.3529C38.7375 22.2008 38.8489 22.0776 38.9861 22.0776C39.1233 22.0776 39.2347 22.2009 39.2347 22.3529Z" fill="#94CBE3"/>
<path d="M39.8794 16.5192C39.8794 16.6814 39.7607 16.8128 39.6142 16.8128C39.4678 16.8128 39.3491 16.6814 39.3491 16.5192C39.3491 16.357 39.4678 16.2256 39.6142 16.2256C39.7607 16.2256 39.8794 16.3572 39.8794 16.5192Z" fill="#2E1707"/>
<path d="M40.054 16.2144C40.0205 16.2144 39.9876 16.1965 39.9677 16.1632C39.9619 16.1536 39.8349 15.9511 39.6145 15.9511C39.3913 15.9511 39.2493 16.1643 39.248 16.1663C39.2144 16.2175 39.1497 16.2293 39.1034 16.1927C39.0569 16.1557 39.046 16.0847 39.079 16.0331C39.0872 16.0204 39.2824 15.7214 39.6145 15.7214C39.9489 15.7214 40.1328 16.0235 40.1406 16.0363C40.1722 16.0892 40.159 16.1605 40.1113 16.1955C40.0935 16.2083 40.0736 16.2144 40.054 16.2144Z" fill="#2E1707"/>
<path d="M42.4673 16.5192C42.4673 16.6814 42.3486 16.8128 42.2021 16.8128C42.0557 16.8128 41.937 16.6814 41.937 16.5192C41.937 16.357 42.0557 16.2256 42.2021 16.2256C42.3486 16.2256 42.4673 16.3572 42.4673 16.5192Z" fill="#2E1707"/>
<path d="M42.6419 16.2144C42.6084 16.2144 42.5755 16.1965 42.5556 16.1632C42.5498 16.1536 42.4228 15.9511 42.2024 15.9511C41.9791 15.9511 41.8372 16.1643 41.8359 16.1663C41.8023 16.2175 41.7376 16.2293 41.6913 16.1927C41.6448 16.1557 41.6339 16.0847 41.6669 16.0331C41.6751 16.0204 41.8703 15.7214 42.2024 15.7214C42.5368 15.7214 42.7207 16.0235 42.7285 16.0363C42.7601 16.0892 42.7469 16.1605 42.6991 16.1955C42.6814 16.2083 42.6616 16.2144 42.6419 16.2144Z" fill="#2E1707"/>
<g opacity="0.31">
<path d="M41.6553 15.7266H42.7842C42.9987 15.7266 43.1725 15.9336 43.1725 16.1892C43.1725 16.7999 42.7568 17.2951 42.2442 17.2951H42.1951C41.6825 17.2951 41.2668 16.7999 41.2668 16.1892C41.267 15.9336 41.4408 15.7266 41.6553 15.7266Z" fill="#E9EFFF"/>
</g>
<g opacity="0.31">
<path d="M39.021 15.7266H40.1499C40.3644 15.7266 40.5382 15.9336 40.5382 16.1892C40.5382 16.7999 40.1226 17.2951 39.6099 17.2951H39.5609C39.0482 17.2951 38.6326 16.7999 38.6326 16.1892C38.6326 15.9336 38.8065 15.7266 39.021 15.7266Z" fill="#E9EFFF"/>
</g>
<path d="M39.6099 17.3336H39.5608C39.0299 17.3336 38.5979 16.8203 38.5979 16.1895C38.5979 15.9132 38.7876 15.6885 39.0209 15.6885H40.1499C40.383 15.6885 40.5729 15.9132 40.5729 16.1895C40.5728 16.8204 40.1408 17.3336 39.6099 17.3336ZM39.0209 15.7651C38.8259 15.7651 38.6672 15.9554 38.6672 16.1895C38.6672 16.778 39.0682 17.257 39.5609 17.257H39.61C40.1028 17.257 40.5037 16.7782 40.5037 16.1895C40.5037 15.9556 40.345 15.7651 40.15 15.7651H39.0209Z" fill="white"/>
<path d="M42.2446 17.3336H42.1956C41.6646 17.3336 41.2327 16.8203 41.2327 16.1895C41.2327 15.9132 41.4224 15.6885 41.6557 15.6885H42.7846C43.0179 15.6885 43.2077 15.9132 43.2077 16.1895C43.2075 16.8204 42.7756 17.3336 42.2446 17.3336ZM41.6556 15.7651C41.4606 15.7651 41.3019 15.9554 41.3019 16.1895C41.3019 16.778 41.7027 17.257 42.1954 17.257H42.2445C42.7373 17.257 43.1382 16.7782 43.1382 16.1895C43.1382 15.9556 42.9795 15.7651 42.7845 15.7651H41.6556Z" fill="white"/>
<path d="M43.3916 15.6097H43.1729C43.1729 15.6097 42.9563 15.5237 42.4194 15.5237C41.8823 15.5237 41.3944 15.5349 41.25 15.6312C41.1626 15.6895 41.01 15.7121 40.9028 15.721C40.7957 15.7121 40.6429 15.6895 40.5555 15.6312C40.4112 15.5349 39.9232 15.5237 39.3862 15.5237C38.8492 15.5237 38.6327 15.6097 38.6327 15.6097H38.414C38.3849 15.6097 38.3612 15.6378 38.3612 15.6725V16.0249C38.3612 16.0596 38.3848 16.0878 38.414 16.0878H38.4666V16.1385C38.4666 16.1731 38.4902 16.2013 38.5194 16.2013H38.5983C38.5983 16.1972 38.598 16.1933 38.598 16.1892C38.598 15.9129 38.7878 15.6882 39.0211 15.6882H40.15C40.3832 15.6882 40.573 15.9129 40.573 16.1892C40.573 16.3852 40.5313 16.5696 40.458 16.7311C40.5107 16.7352 40.5616 16.6986 40.5807 16.6365L40.6555 16.3926C40.6737 16.3334 40.7209 16.2941 40.7738 16.2941H40.7825H41.0236H41.0322C41.0851 16.2941 41.1324 16.3334 41.1505 16.3926L41.2254 16.6365C41.2445 16.6986 41.2953 16.7352 41.348 16.7311C41.2748 16.5696 41.233 16.3852 41.233 16.1892C41.233 15.9129 41.4228 15.6882 41.6561 15.6882H42.785C43.0183 15.6882 43.208 15.9129 43.208 16.1892C43.208 16.1933 43.2078 16.1972 43.2078 16.2013H43.2867C43.3158 16.2013 43.3394 16.1731 43.3394 16.1385V16.0878H43.3921C43.4212 16.0878 43.4447 16.0596 43.4447 16.0249V15.6725C43.4442 15.6378 43.4207 15.6097 43.3916 15.6097Z" fill="white"/>
<path d="M43.4442 16.0251L43.8388 16.268C43.8388 16.268 43.9457 16.1949 43.9089 15.9703C43.8847 15.8223 43.4442 15.6726 43.4442 15.6726V16.0251Z" fill="white"/>
<path d="M38.4586 16.025L37.9246 16.3231C37.9246 16.3231 37.8242 16.2325 37.8737 16.0106C37.9111 15.843 38.4586 15.6724 38.4586 15.6724V16.025Z" fill="white"/>
</svg>
