<svg width="166" height="179" viewBox="0 0 166 179" fill="none" xmlns="http://www.w3.org/2000/svg">
<path fill-rule="evenodd" clip-rule="evenodd" d="M134.393 32.9581C134.759 32.6884 135.091 32.4062 135.456 32.1821C139.474 29.7876 143.512 27.4388 147.496 24.9945C147.87 24.7098 148.328 24.5554 148.799 24.5554C149.271 24.5554 149.729 24.7098 150.102 24.9945C152.271 26.3557 154.502 27.6006 156.725 28.8829C157.381 29.2523 157.805 29.6631 157.801 30.5221C157.767 35.6182 157.772 40.7142 157.759 45.8102C157.736 45.9978 157.689 46.1817 157.62 46.358C156.288 46.0634 136.271 34.5392 134.393 32.9581Z" fill="#B40000"/>
<path fill-rule="evenodd" clip-rule="evenodd" d="M118.612 78.6653C118.948 81.0639 120.529 85.4793 121.453 86.6662L126.231 83.0973C123.529 81.5286 121.151 80.1509 118.612 78.6653ZM111.888 74.7229L104.412 70.3655C104.307 70.4734 104.198 70.5772 104.084 70.6809C104.946 73.1957 105.807 75.7105 106.774 78.5241C108.505 77.2543 110.069 76.0882 111.884 74.7312L111.888 74.7229ZM127.106 51.5459C127.106 49.1099 127.076 47.1802 127.106 45.2547C127.131 44.3749 126.58 44.0097 125.958 43.6528C123.854 42.4382 121.753 41.2181 119.654 39.9925L114.351 36.9216C112.35 38.1043 110.455 39.2413 108.245 40.561C114.632 44.2836 120.672 47.8027 127.101 51.5542L127.106 51.5459ZM134.397 32.7675C136.275 34.3486 156.292 45.8855 157.624 46.176C157.692 45.9992 157.738 45.8153 157.763 45.6282C157.763 40.532 157.763 35.4318 157.805 30.3357C157.805 29.4809 157.385 29.0659 156.729 28.6965C154.506 27.4142 152.27 26.1693 150.106 24.8081C149.733 24.5234 149.275 24.369 148.803 24.369C148.332 24.369 147.874 24.5234 147.5 24.8081C143.516 27.2565 139.478 29.6012 135.46 31.9957C135.09 32.2239 134.758 32.5061 134.393 32.7759L134.397 32.7675ZM85.5131 9.97233C85.4316 10.3378 85.3723 10.7078 85.3366 11.0804C85.3366 16.0602 85.3366 21.011 85.3072 25.9784C85.3072 26.9577 85.7274 27.4599 86.5259 27.9288C91.0815 30.5308 95.6034 33.2033 100.134 35.8426C101.289 36.5149 102.449 37.1705 103.643 37.8511C106.677 36.0501 109.661 34.3071 112.611 32.5144C113.109 32.1672 113.702 31.976 114.312 31.9656C114.922 31.9552 115.522 32.1262 116.032 32.4563C120.716 35.2063 125.415 37.9424 130.127 40.6647C130.674 40.9501 131.122 41.389 131.416 41.9261C131.71 42.4631 131.836 43.0739 131.779 43.6819C131.733 45.6821 131.758 47.6782 131.779 49.6784C131.779 50.1598 131.875 50.6371 131.96 51.3757C136.078 48.9564 139.991 46.6656 144.117 44.1259L85.5131 9.97233ZM8.23278 69.3862L80.4533 27.2939C80.7937 24.4305 80.6802 11.6323 80.2894 10.1591C79.7683 10.4247 79.2598 10.6488 78.7765 10.9351C55.7214 24.3641 32.6607 37.793 9.5944 51.2222C8.52276 51.8447 8.03947 52.4672 8.06468 53.7827C8.14453 58.3475 8.0941 62.9414 8.1025 67.5229C8.0983 68.0042 8.16974 68.5022 8.23278 69.3862ZM8.0941 123.978C9.01866 123.5 9.5818 123.235 10.1197 122.932C12.2798 121.687 14.4273 120.417 16.5832 119.155C37.3773 107.04 58.1715 94.934 78.9656 82.8359C80.1549 82.1428 80.6718 81.4208 80.6466 79.9891C80.5667 74.0589 80.6214 68.1204 80.613 62.1861C80.613 61.5761 80.5415 60.9619 80.4953 60.1112C79.6548 60.5469 79.058 60.854 78.4655 61.1943L63.0632 70.1912C45.3567 80.4937 27.6499 90.7883 9.94321 101.075C8.53116 101.904 8.03106 102.788 8.06048 104.394C8.16134 110.067 8.0983 115.748 8.0983 121.409C8.0941 122.135 8.0941 122.841 8.0941 123.978ZM8.0941 96.6342C8.93461 96.2192 9.45572 95.9868 9.9306 95.7087C33.0417 82.2466 56.1555 68.7898 79.2724 55.3389C80.3104 54.7371 80.6424 54.0441 80.634 52.8863C80.5878 46.7611 80.613 40.6274 80.6088 34.5063C80.6088 34.0166 80.5205 33.5353 80.4617 32.8464C79.7935 33.1784 79.2766 33.3983 78.7807 33.6764C76.8391 34.7927 74.9017 35.9339 72.9644 37.0585C51.9097 49.3311 30.8424 61.5939 9.7625 73.8473C8.47233 74.5901 8.01005 75.3947 8.03526 76.8891C8.11931 82.757 8.06888 88.6291 8.06888 94.4928L8.0941 96.6342ZM85.3366 32.7385V35.0583C85.3366 40.8681 85.3997 46.6781 85.2904 52.4879C85.2652 54.0815 85.8535 54.8824 87.1563 55.6418C101.165 63.7506 115.166 71.8927 129.161 80.0679C129.729 80.3617 130.273 80.7003 130.787 81.0805C132.3 82.3254 131.968 84.2883 130.194 85.1224C129.106 85.6296 128.062 86.2234 127.072 86.8986C125.332 88.102 123.672 89.4217 121.949 90.6335C120.05 91.9988 119.18 91.729 118.398 89.5171C117.162 85.9939 115.969 82.4624 114.742 78.9267C114.582 78.4785 114.321 78.0635 114.09 77.5365C113.368 78.0345 112.788 78.4287 112.224 78.8437C110.577 80.0638 108.959 81.3336 107.278 82.4997C105.828 83.5247 104.811 83.172 104.147 81.5121C104.029 81.2216 103.95 80.902 103.849 80.5949C102.588 76.9389 101.327 73.2866 100.109 69.6268C99.8744 68.7628 99.3033 68.0258 98.52 67.5768C94.5696 65.3276 90.657 63.012 86.7234 60.742C86.3175 60.5457 85.896 60.3834 85.4627 60.2564C85.4207 60.9329 85.3618 61.4475 85.3618 61.9454C85.3618 68.0125 85.3955 74.0838 85.324 80.1468C85.2744 80.6771 85.3913 81.2099 85.659 81.6722C85.9267 82.1349 86.3322 82.5047 86.8201 82.7321C109.853 96.1113 132.87 109.508 155.872 122.924C156.401 123.239 156.969 123.492 157.645 123.841C157.724 123.4 157.778 122.955 157.809 122.509C157.809 99.471 157.819 76.4326 157.839 53.3926C157.876 52.9834 157.785 52.573 157.58 52.2161C157.374 51.8592 157.062 51.5733 156.687 51.3965C154.561 50.2138 152.434 49.0311 150.383 47.7197C149.266 47.0018 148.417 47.0101 147.269 47.7197C142.193 50.8238 137.007 53.7619 131.951 56.9117C130.194 57.9989 128.824 58.0114 127.03 56.9532C113.901 49.2095 100.722 41.5655 87.5556 33.9004C86.9252 33.556 86.3074 33.2572 85.3366 32.7385ZM165.966 78.0926C165.966 94.3559 165.924 110.611 166 126.87C166 130.144 164.781 132.265 161.966 133.925C136.876 148.468 111.818 163.062 86.7907 177.706C84.8029 178.872 82.8319 179.507 80.6214 178.494C80.1024 178.244 79.5976 177.967 79.1085 177.664C53.826 162.929 28.5464 148.197 3.26958 133.468C1.06745 132.186 -0.00419022 130.393 1.23117e-05 127.795C0.0224257 102.315 0.0224257 76.8293 1.23117e-05 51.3384C1.23117e-05 48.5953 1.09687 46.6905 3.42507 45.3377C28.7579 30.5889 54.0866 15.8306 79.411 1.06259C81.8821 -0.381565 84.1557 -0.340064 86.6142 1.10409C100.193 9.07181 113.83 16.9483 127.379 24.9367C128.833 25.7916 129.9 25.8788 131.342 24.9367C135.843 22.1065 140.486 19.517 145.008 16.7325C147.53 15.1929 149.871 15.1348 152.388 16.6619C155.719 18.687 159.091 20.6527 162.503 22.5589C164.874 23.8827 165.971 25.8041 165.966 28.5305C165.947 45.0555 165.947 61.5761 165.966 78.0926Z" fill="black"/>
<path fill-rule="evenodd" clip-rule="evenodd" d="M85.3368 32.7385C86.316 33.2573 86.9337 33.5685 87.5305 33.9047C100.693 41.5696 113.876 49.2137 127.001 56.9531C128.799 58.0114 130.165 58.0031 131.922 56.9117C136.965 53.7661 142.163 50.8363 147.244 47.7239C148.387 47.0184 149.24 47.0101 150.358 47.7239C152.405 49.0311 154.54 50.2138 156.662 51.4006C157.034 51.5795 157.343 51.8658 157.548 52.2211C157.752 52.5767 157.843 52.985 157.809 53.3926C157.784 76.4351 157.776 99.4739 157.784 122.509C157.751 122.955 157.695 123.4 157.616 123.841C156.935 123.492 156.355 123.239 155.847 122.928C132.831 109.524 109.814 96.1262 86.7951 82.7363C85.7192 82.1138 85.2822 81.4332 85.299 80.1509C85.3704 74.0879 85.3284 68.0167 85.3368 61.9496C85.3368 61.4475 85.3914 60.937 85.4376 60.2606C85.8705 60.3872 86.292 60.5478 86.6984 60.742C90.632 63.012 94.5403 65.34 98.4907 67.5768C99.2787 68.0333 99.8511 68.779 100.083 69.6517C101.306 73.3161 102.576 76.9596 103.82 80.6198C103.925 80.9269 104.004 81.2423 104.118 81.5369C104.786 83.1969 105.799 83.5455 107.253 82.5246C108.934 81.3419 110.552 80.0886 112.199 78.8686C112.763 78.4536 113.338 78.0635 114.061 77.5572C114.303 78.0104 114.52 78.4756 114.712 78.9516C115.94 82.479 117.133 86.0064 118.373 89.5379C119.155 91.7539 120.033 92.0278 121.924 90.6584C123.643 89.4134 125.307 88.102 127.043 86.9027C128.032 86.2263 129.076 85.6325 130.165 85.1266C131.943 84.2966 132.266 82.3213 130.762 81.0805C130.242 80.7082 129.697 80.3713 129.131 80.072C115.123 71.9159 101.114 63.7726 87.1061 55.6418C85.8075 54.8865 85.2149 54.0814 85.2443 52.492C85.3494 46.6822 85.2864 40.8723 85.2864 35.0624C85.3368 34.4234 85.3368 33.7843 85.3368 32.7385Z" fill="#B40000"/>
<path fill-rule="evenodd" clip-rule="evenodd" d="M8.0942 96.6337V94.4923C8.0942 88.6327 8.14883 82.7565 8.06058 76.8928C8.03536 75.403 8.48083 74.5979 9.78782 73.8509C30.8761 61.6117 51.9434 49.3489 72.9896 37.0625C74.927 35.9378 76.8644 34.7966 78.806 33.6803C79.2808 33.4064 79.802 33.1865 80.487 32.8503C80.5542 33.5268 80.634 34.0082 80.634 34.5103C80.634 40.6355 80.634 46.7648 80.6593 52.89C80.6593 54.0478 80.3357 54.7408 79.2976 55.3384C56.1669 68.7756 33.053 82.2336 9.95592 95.7124C9.45582 95.9863 8.94311 96.2021 8.0942 96.6337Z" fill="#B40000"/>
<path fill-rule="evenodd" clip-rule="evenodd" d="M8.09394 123.978V121.442C8.09394 115.769 8.15702 110.088 8.05616 104.428C8.02674 102.801 8.5226 101.938 9.93885 101.108C27.6595 90.8494 45.3675 80.5453 63.0631 70.1955C68.1986 67.1939 73.3383 64.196 78.4822 61.2027C79.079 60.8625 79.6841 60.5637 80.512 60.1238C80.5625 60.9538 80.6297 61.5762 80.6297 62.1987C80.6297 68.1289 80.5835 74.0673 80.6675 79.9975C80.6885 81.425 80.1716 82.1513 78.9865 82.8401C58.1811 94.9192 37.3856 107.028 16.5999 119.168C14.4482 120.43 12.2951 121.687 10.1406 122.94C9.57748 123.235 9.0185 123.484 8.09394 123.978Z" fill="#B40000"/>
<path fill-rule="evenodd" clip-rule="evenodd" d="M8.23268 69.3862C8.16964 68.4981 8.1024 68.0043 8.1024 67.5187C8.1024 62.9539 8.14442 58.3517 8.06458 53.7785C8.06458 52.4796 8.53106 51.8405 9.5943 51.2181C32.6634 37.8056 55.7243 24.3766 78.7764 10.9311C79.2597 10.6489 79.7724 10.4165 80.2893 10.155C80.6802 11.6324 80.7936 24.4306 80.4532 27.294C56.5408 41.2334 32.5485 55.2185 8.23268 69.3862Z" fill="#B40000"/>
<path fill-rule="evenodd" clip-rule="evenodd" d="M85.5132 9.97217L144.122 44.1254C139.995 46.6651 136.082 48.9559 131.96 51.3752C131.876 50.6324 131.787 50.1552 131.779 49.6779C131.779 47.6777 131.737 45.6816 131.779 43.6772C131.836 43.0701 131.709 42.4601 131.415 41.9239C131.121 41.3878 130.673 40.9496 130.127 40.6646C125.42 37.9478 120.722 35.2116 116.032 32.4561C115.523 32.1233 114.923 31.9506 114.312 31.961C113.702 31.9714 113.108 32.1643 112.611 32.5142C109.669 34.307 106.681 36.0499 103.643 37.851C102.449 37.1704 101.285 36.5147 100.134 35.8424C95.6035 33.2031 91.0816 30.5306 86.526 27.9286C85.7233 27.4597 85.3031 26.9576 85.3073 25.9782C85.3493 20.9984 85.3283 16.0434 85.3367 11.0802C85.3724 10.7076 85.4313 10.3375 85.5132 9.97217Z" fill="#B40000"/>
<path fill-rule="evenodd" clip-rule="evenodd" d="M127.101 51.5537L108.253 40.5692C110.463 39.2495 112.359 38.1124 114.359 36.9297L119.663 40.0006C121.764 41.2248 123.865 42.4448 125.967 43.6607C126.589 44.0217 127.139 44.3828 127.114 45.2625C127.072 47.1881 127.101 49.1178 127.101 51.5537Z" fill="white"/>
<path fill-rule="evenodd" clip-rule="evenodd" d="M111.884 74.7311C110.073 76.0881 108.522 77.2543 106.778 78.5407C105.811 75.723 104.954 73.2123 104.093 70.6975L104.416 70.3821L111.884 74.7311Z" fill="white"/>
<path fill-rule="evenodd" clip-rule="evenodd" d="M118.612 78.6653C121.134 80.1426 123.529 81.5204 126.231 83.089C124.454 84.4128 122.953 85.5416 121.453 86.6621C120.533 85.4877 118.957 81.0764 118.612 78.6653Z" fill="white"/>
<path d="M11.3552 129.115L82.6554 85.6992L155.46 129.115L82.6554 169.207L11.3552 129.115Z" fill="#B40000"/>
<path d="M49.3376 33.7427L39.6789 39.4094L40.7231 60.5308L20.3616 71.6066L20.8837 83.4552L42.0283 71.6066L43.3336 96.0765L52.4701 90.9249L51.426 66.7126L71.5264 55.1216L71.0043 44.0458L51.1649 55.3792L49.3376 33.7427Z" fill="white" stroke="black" stroke-width="5" stroke-linejoin="round"/>
</svg>
