<svg width="80" height="80" viewBox="0 0 80 80" fill="none" xmlns="http://www.w3.org/2000/svg">
<rect width="80" height="80" rx="10" fill="#B40000"/>
<path d="M63.3809 53.5455H33.7379C33.1363 53.5455 32.6484 52.8014 32.6484 51.8832V24.0709C32.6484 23.153 33.1361 22.4087 33.7379 22.4087H63.3809C63.9825 22.4087 64.4703 23.1528 64.4703 24.0709V51.8832C64.4703 52.8012 63.9826 53.5455 63.3809 53.5455Z" fill="#FCF0FA"/>
<path d="M25.1479 29.0063L21.462 38.3449C21.2697 38.8318 20.9601 39.1847 20.5995 39.3273L15.6216 41.2987C14.9935 41.5474 14.5549 42.4124 14.5549 43.4025V51.3718C14.5549 52.5722 15.1927 53.5453 15.9795 53.5453H19.8978H26.7358H31.234C32.0208 53.5453 32.6585 52.5722 32.6585 51.3718V29.7882C32.6585 28.5487 31.9803 27.5603 31.1689 27.6168L26.3034 27.9561C25.8273 27.9895 25.3937 28.3835 25.1479 29.0063Z" fill="#FCF0FA"/>
<path d="M53.7862 39.6345H46.0688C45.6343 39.6345 45.2821 39.0972 45.2821 38.4342V31.3289C45.2821 30.666 45.6343 30.1287 46.0688 30.1287H53.7862C54.2207 30.1287 54.5728 30.666 54.5728 31.3289V38.4342C54.5728 39.0972 54.2207 39.6345 53.7862 39.6345Z" fill="#C5D9DD"/>
<path d="M53.7595 39.0329H46.0942C45.8491 39.0329 45.6503 38.7296 45.6503 38.3555V31.4081C45.6503 31.034 45.8491 30.7307 46.0942 30.7307H53.7595C54.0046 30.7307 54.2034 31.034 54.2034 31.4081V38.3555C54.2034 38.7296 54.0048 39.0329 53.7595 39.0329Z" fill="#A6D2E5"/>
<path d="M53.7595 39.0329H46.0942C45.8491 39.0329 45.6503 38.7296 45.6503 38.3555V31.4081C45.6503 31.034 45.8491 30.7307 46.0942 30.7307H53.7595C54.0046 30.7307 54.2034 31.034 54.2034 31.4081V38.3555C54.2034 38.7296 54.0048 39.0329 53.7595 39.0329Z" stroke="#74A6B7" stroke-miterlimit="10"/>
<path d="M32.6622 51.227H17.3602V48.0572C17.3602 45.4848 18.727 43.3994 20.413 43.3994H32.6621V51.227H32.6622Z" fill="#CD0016"/>
<path d="M32.6622 51.2269H17.3602V50.1479C17.3602 48.1586 18.4172 46.5459 19.721 46.5459H32.6622V51.2269Z" fill="#EE4952"/>
<path d="M32.6622 51.2269H17.3602C17.3602 50.73 17.6242 50.3274 17.9498 50.3274H32.6621V51.2269H32.6622Z" fill="#F7CC57"/>
<path d="M23.8484 53.7772H14.6549C13.9416 53.7772 13.3633 52.8948 13.3633 51.8064C13.3633 50.7181 13.9416 49.8357 14.6549 49.8357H23.8484V53.7772Z" fill="#C7E0E5"/>
<path d="M23.8484 53.7773H14.3854C13.8209 53.7773 13.3633 53.0791 13.3633 52.2177C13.3633 51.3563 13.8209 50.6582 14.3854 50.6582H23.8484V53.7773Z" fill="#A7C1C9"/>
<path d="M22.572 52.9075H14.2343" stroke="#8EA8AD" stroke-width="2" stroke-miterlimit="10"/>
<path d="M25.7263 59.5735C27.6146 59.5735 29.1454 57.2379 29.1454 54.3568C29.1454 51.4757 27.6146 49.1401 25.7263 49.1401C23.838 49.1401 22.3073 51.4757 22.3073 54.3568C22.3073 57.2379 23.838 59.5735 25.7263 59.5735Z" fill="#3D3E2C"/>
<path d="M25.726 56.7226C26.5822 56.7226 27.2764 55.6635 27.2764 54.357C27.2764 53.0506 26.5822 51.9915 25.726 51.9915C24.8697 51.9915 24.1755 53.0506 24.1755 54.357C24.1755 55.6635 24.8697 56.7226 25.726 56.7226Z" fill="#ACBDBB"/>
<path d="M25.7261 53.2737C25.8888 53.2737 26.0207 53.0724 26.0207 52.8241C26.0207 52.5758 25.8888 52.3745 25.7261 52.3745C25.5633 52.3745 25.4314 52.5758 25.4314 52.8241C25.4314 53.0724 25.5633 53.2737 25.7261 53.2737Z" fill="#808E8C"/>
<path d="M25.7261 56.3208C25.8888 56.3208 26.0207 56.1195 26.0207 55.8712C26.0207 55.6229 25.8888 55.4216 25.7261 55.4216C25.5633 55.4216 25.4314 55.6229 25.4314 55.8712C25.4314 56.1195 25.5633 56.3208 25.7261 56.3208Z" fill="#808E8C"/>
<path d="M24.7276 54.7971C24.8904 54.7971 25.0223 54.5958 25.0223 54.3475C25.0223 54.0992 24.8904 53.8979 24.7276 53.8979C24.5649 53.8979 24.433 54.0992 24.433 54.3475C24.433 54.5958 24.5649 54.7971 24.7276 54.7971Z" fill="#808E8C"/>
<path d="M26.7248 54.7971C26.8876 54.7971 27.0195 54.5958 27.0195 54.3475C27.0195 54.0992 26.8876 53.8979 26.7248 53.8979C26.5621 53.8979 26.4302 54.0992 26.4302 54.3475C26.4302 54.5958 26.5621 54.7971 26.7248 54.7971Z" fill="#808E8C"/>
<mask id="mask0_272_2764" style="mask-type:luminance" maskUnits="userSpaceOnUse" x="14" y="27" width="19" height="27">
<path d="M25.1479 29.0061L21.462 38.3446C21.2697 38.8316 20.9601 39.1844 20.5995 39.3271L15.6216 41.2984C14.9935 41.5472 14.5549 42.4122 14.5549 43.4022V51.3715C14.5549 52.572 15.1927 53.5451 15.9795 53.5451H19.8978H26.7358H31.234C32.0208 53.5451 32.6585 52.572 32.6585 51.3715V29.7879C32.6585 28.5485 31.9803 27.56 31.1689 27.6166L26.3034 27.9558C25.8273 27.9892 25.3937 28.3832 25.1479 29.0061Z" fill="white"/>
</mask>
<g mask="url(#mask0_272_2764)">
<path d="M14.7023 49.2115H2.49705C1.64189 49.2115 0.94873 48.1539 0.94873 46.8492C0.94873 45.5444 1.64189 44.4868 2.49705 44.4868H14.7023C15.5574 44.4868 16.2506 45.5444 16.2506 46.8492C16.2506 48.1539 15.5573 49.2115 14.7023 49.2115Z" fill="#F7CC57"/>
</g>
<mask id="mask1_272_2764" style="mask-type:luminance" maskUnits="userSpaceOnUse" x="14" y="27" width="19" height="27">
<path d="M25.1479 29.0061L21.462 38.3446C21.2697 38.8316 20.9601 39.1844 20.5995 39.3271L15.6216 41.2984C14.9935 41.5472 14.5549 42.4122 14.5549 43.4022V51.3715C14.5549 52.572 15.1927 53.5451 15.9795 53.5451H19.8978H26.7358H31.234C32.0208 53.5451 32.6585 52.572 32.6585 51.3715V29.7879C32.6585 28.5485 31.9803 27.56 31.1689 27.6166L26.3034 27.9558C25.8273 27.9892 25.3937 28.3832 25.1479 29.0061Z" fill="white"/>
</mask>
<g mask="url(#mask1_272_2764)">
<path d="M14.7124 48.4176H3.18512C2.61742 48.4176 2.15723 47.7155 2.15723 46.8493C2.15723 45.9831 2.61742 45.281 3.18512 45.281H14.7124C15.2801 45.281 15.7403 45.9831 15.7403 46.8493C15.7403 47.7153 15.2801 48.4176 14.7124 48.4176Z" fill="#FFEA50"/>
</g>
<mask id="mask2_272_2764" style="mask-type:luminance" maskUnits="userSpaceOnUse" x="14" y="27" width="19" height="27">
<path d="M25.1479 29.0061L21.462 38.3446C21.2697 38.8316 20.9601 39.1844 20.5995 39.3271L15.6216 41.2984C14.9935 41.5472 14.5549 42.4122 14.5549 43.4022V51.3715C14.5549 52.572 15.1927 53.5451 15.9795 53.5451H19.8978H26.7358H31.234C32.0208 53.5451 32.6585 52.572 32.6585 51.3715V29.7879C32.6585 28.5485 31.9803 27.56 31.1689 27.6166L26.3034 27.9558C25.8273 27.9892 25.3937 28.3832 25.1479 29.0061Z" fill="white"/>
</mask>
<g mask="url(#mask2_272_2764)">
<path d="M31.3149 38.5435L31.5755 30.5892C31.5878 30.2124 31.3909 29.8965 31.1436 29.8965H28.5225C28.3586 29.8965 28.209 30.0378 28.1356 30.2611L25.5289 38.2154C25.3851 38.6542 25.5942 39.1703 25.9157 39.1703H30.883C31.1135 39.1705 31.3035 38.8948 31.3149 38.5435Z" fill="#A6D2E5"/>
</g>
<mask id="mask3_272_2764" style="mask-type:luminance" maskUnits="userSpaceOnUse" x="14" y="27" width="19" height="27">
<path d="M25.1479 29.0061L21.462 38.3446C21.2697 38.8316 20.9601 39.1844 20.5995 39.3271L15.6216 41.2984C14.9935 41.5472 14.5549 42.4122 14.5549 43.4022V51.3715C14.5549 52.572 15.1927 53.5451 15.9795 53.5451H19.8978H26.7358H31.234C32.0208 53.5451 32.6585 52.572 32.6585 51.3715V29.7879C32.6585 28.5485 31.9803 27.56 31.1689 27.6166L26.3034 27.9558C25.8273 27.9892 25.3937 28.3832 25.1479 29.0061Z" fill="white"/>
</mask>
<g mask="url(#mask3_272_2764)">
<path d="M31.3149 38.5435L31.5755 30.5892C31.5878 30.2124 31.3909 29.8965 31.1436 29.8965H28.5225C28.3586 29.8965 28.209 30.0378 28.1356 30.2611L25.5289 38.2154C25.3851 38.6542 25.5942 39.1703 25.9157 39.1703H30.883C31.1135 39.1705 31.3035 38.8948 31.3149 38.5435Z" stroke="#74A6B7" stroke-miterlimit="10"/>
</g>
<mask id="mask4_272_2764" style="mask-type:luminance" maskUnits="userSpaceOnUse" x="14" y="27" width="19" height="27">
<path d="M25.1479 29.0061L21.462 38.3446C21.2697 38.8316 20.9601 39.1844 20.5995 39.3271L15.6216 41.2984C14.9935 41.5472 14.5549 42.4122 14.5549 43.4022V51.3715C14.5549 52.572 15.1927 53.5451 15.9795 53.5451H19.8978H26.7358H31.234C32.0208 53.5451 32.6585 52.572 32.6585 51.3715V29.7879C32.6585 28.5485 31.9803 27.56 31.1689 27.6166L26.3034 27.9558C25.8273 27.9892 25.3937 28.3832 25.1479 29.0061Z" fill="white"/>
</mask>
<g mask="url(#mask4_272_2764)">
<path d="M26.685 30.5145L24.0778 38.4706C24.0304 38.6152 23.9335 38.7068 23.8274 38.7068H18.5605C18.3167 38.7068 18.1894 38.264 18.3546 37.9902L23.1574 30.0342C23.2104 29.9464 23.2851 29.8965 23.3633 29.8965H26.4345C26.6427 29.8965 26.7782 30.2306 26.685 30.5145Z" fill="#A6D2E5"/>
</g>
<mask id="mask5_272_2764" style="mask-type:luminance" maskUnits="userSpaceOnUse" x="14" y="27" width="19" height="27">
<path d="M25.1479 29.0061L21.462 38.3446C21.2697 38.8316 20.9601 39.1844 20.5995 39.3271L15.6216 41.2984C14.9935 41.5472 14.5549 42.4122 14.5549 43.4022V51.3715C14.5549 52.572 15.1927 53.5451 15.9795 53.5451H19.8978H26.7358H31.234C32.0208 53.5451 32.6585 52.572 32.6585 51.3715V29.7879C32.6585 28.5485 31.9803 27.56 31.1689 27.6166L26.3034 27.9558C25.8273 27.9892 25.3937 28.3832 25.1479 29.0061Z" fill="white"/>
</mask>
<g mask="url(#mask5_272_2764)">
<path d="M26.685 30.5145L24.0778 38.4706C24.0304 38.6152 23.9335 38.7068 23.8274 38.7068H18.5605C18.3167 38.7068 18.1894 38.264 18.3546 37.9902L23.1574 30.0342C23.2104 29.9464 23.2851 29.8965 23.3633 29.8965H26.4345C26.6427 29.8965 26.7782 30.2306 26.685 30.5145Z" stroke="#74A6B7" stroke-miterlimit="10"/>
</g>
<path d="M23.9457 40.0981C23.7241 40.0981 23.5444 39.824 23.5444 39.4859V34.9142C23.5444 34.5761 23.7241 34.302 23.9457 34.302C24.1673 34.302 24.3469 34.5761 24.3469 34.9142V39.4859C24.3469 39.824 24.1673 40.0981 23.9457 40.0981Z" fill="#3D3E2C"/>
<path d="M40.8671 29.8298H38.4369V38.6647H40.8671V29.8298Z" fill="#EE4952"/>
<path d="M36.7566 32.3934V36.1013H42.5471V32.3934H36.7566Z" fill="#EE4952"/>
<path d="M62.4533 32.3934H60.7731V29.8298H58.343V32.3934H56.6628V36.1013H58.343V38.6649H60.7731V36.1013H62.4533V32.3934Z" fill="#EE4952"/>
<path d="M30.5348 27.7785H28.1035V26.1556C28.1035 25.1312 28.6478 24.3008 29.3192 24.3008C29.9906 24.3008 30.5349 25.1312 30.5349 26.1556V27.7785H30.5348Z" fill="#305AFF"/>
<path d="M30.1173 27.781H28.5204V26.4197C28.5204 25.7469 28.8779 25.2014 29.3188 25.2014C29.7598 25.2014 30.1173 25.7469 30.1173 26.4197V27.781Z" fill="#204BD1"/>
<path d="M40.2601 22.4777H37.8289V20.8548C37.8289 19.8304 38.3731 19 39.0445 19C39.716 19 40.2602 19.8304 40.2602 20.8548L40.2601 22.4777Z" fill="#EE4952"/>
<path d="M39.9424 22.4239H38.1454V21.2244C38.1454 20.4673 38.5477 19.8535 39.0439 19.8535C39.5401 19.8535 39.9424 20.4673 39.9424 21.2244V22.4239Z" fill="#CD0016"/>
<mask id="mask6_272_2764" style="mask-type:luminance" maskUnits="userSpaceOnUse" x="32" y="22" width="33" height="32">
<path d="M63.3809 53.5455H33.7379C33.1363 53.5455 32.6484 52.8014 32.6484 51.8832V24.0709C32.6484 23.153 33.1361 22.4087 33.7379 22.4087H63.3809C63.9825 22.4087 64.4703 23.1528 64.4703 24.0709V51.8832C64.4703 52.8012 63.9826 53.5455 63.3809 53.5455Z" fill="white"/>
</mask>
<g mask="url(#mask6_272_2764)">
<path d="M64.5056 43.3994H32.6143V51.227H64.5056V43.3994Z" fill="#CD0016"/>
</g>
<mask id="mask7_272_2764" style="mask-type:luminance" maskUnits="userSpaceOnUse" x="32" y="22" width="33" height="32">
<path d="M63.3809 53.5455H33.7379C33.1363 53.5455 32.6484 52.8014 32.6484 51.8832V24.0709C32.6484 23.153 33.1361 22.4087 33.7379 22.4087H63.3809C63.9825 22.4087 64.4703 23.1528 64.4703 24.0709V51.8832C64.4703 52.8012 63.9826 53.5455 63.3809 53.5455Z" fill="white"/>
</mask>
<g mask="url(#mask7_272_2764)">
<path d="M65.204 46.5266H33.3127V51.2076H65.204V46.5266Z" fill="#EE4952"/>
</g>
<mask id="mask8_272_2764" style="mask-type:luminance" maskUnits="userSpaceOnUse" x="32" y="22" width="33" height="32">
<path d="M63.3809 53.5455H33.7379C33.1363 53.5455 32.6484 52.8014 32.6484 51.8832V24.0709C32.6484 23.153 33.1361 22.4087 33.7379 22.4087H63.3809C63.9825 22.4087 64.4703 23.1528 64.4703 24.0709V51.8832C64.4703 52.8012 63.9826 53.5455 63.3809 53.5455Z" fill="white"/>
</mask>
<g mask="url(#mask8_272_2764)">
<path d="M65.204 50.2827H33.3127V51.2074H65.204V50.2827Z" fill="#F7CC57"/>
</g>
<mask id="mask9_272_2764" style="mask-type:luminance" maskUnits="userSpaceOnUse" x="32" y="22" width="33" height="32">
<path d="M63.3809 53.5455H33.7379C33.1363 53.5455 32.6484 52.8014 32.6484 51.8832V24.0709C32.6484 23.153 33.1361 22.4087 33.7379 22.4087H63.3809C63.9825 22.4087 64.4703 23.1528 64.4703 24.0709V51.8832C64.4703 52.8012 63.9826 53.5455 63.3809 53.5455Z" fill="white"/>
</mask>
<g mask="url(#mask9_272_2764)">
<path d="M76.2313 48.9801H64.0261C63.1709 48.9801 62.4778 47.9225 62.4778 46.6177C62.4778 45.313 63.1709 44.2554 64.0261 44.2554H76.2313C77.0865 44.2554 77.7796 45.313 77.7796 46.6177C77.7798 47.9225 77.0865 48.9801 76.2313 48.9801Z" fill="#F7CC57"/>
</g>
<mask id="mask10_272_2764" style="mask-type:luminance" maskUnits="userSpaceOnUse" x="32" y="22" width="33" height="32">
<path d="M63.3809 53.5455H33.7379C33.1363 53.5455 32.6484 52.8014 32.6484 51.8832V24.0709C32.6484 23.153 33.1361 22.4087 33.7379 22.4087H63.3809C63.9825 22.4087 64.4703 23.1528 64.4703 24.0709V51.8832C64.4703 52.8012 63.9826 53.5455 63.3809 53.5455Z" fill="white"/>
</mask>
<g mask="url(#mask10_272_2764)">
<path d="M75.9399 48.2868H64.3183C63.7142 48.2868 63.2244 47.5395 63.2244 46.6178C63.2244 45.696 63.7142 44.9487 64.3183 44.9487H75.9399C76.544 44.9487 77.0338 45.696 77.0338 46.6178C77.034 47.5395 76.5442 48.2868 75.9399 48.2868Z" fill="#FFEA50"/>
</g>
<mask id="mask11_272_2764" style="mask-type:luminance" maskUnits="userSpaceOnUse" x="32" y="22" width="33" height="32">
<path d="M63.3809 53.5455H33.7379C33.1363 53.5455 32.6484 52.8014 32.6484 51.8832V24.0709C32.6484 23.153 33.1361 22.4087 33.7379 22.4087H63.3809C63.9825 22.4087 64.4703 23.1528 64.4703 24.0709V51.8832C64.4703 52.8012 63.9826 53.5455 63.3809 53.5455Z" fill="white"/>
</mask>
<g mask="url(#mask11_272_2764)">
<path d="M77.0975 28.318H64.8923C64.0372 28.318 63.344 27.2604 63.344 25.9556C63.344 24.6509 64.0372 23.5933 64.8923 23.5933H77.0975C77.9527 23.5933 78.6459 24.6509 78.6459 25.9556C78.646 27.2604 77.9527 28.318 77.0975 28.318Z" fill="#F7CC57"/>
</g>
<mask id="mask12_272_2764" style="mask-type:luminance" maskUnits="userSpaceOnUse" x="32" y="22" width="33" height="32">
<path d="M63.3809 53.5455H33.7379C33.1363 53.5455 32.6484 52.8014 32.6484 51.8832V24.0709C32.6484 23.153 33.1361 22.4087 33.7379 22.4087H63.3809C63.9825 22.4087 64.4703 23.1528 64.4703 24.0709V51.8832C64.4703 52.8012 63.9826 53.5455 63.3809 53.5455Z" fill="white"/>
</mask>
<g mask="url(#mask12_272_2764)">
<path d="M33.3607 54.5573H18.0588V51.3875C18.0588 48.8152 19.4257 46.7297 21.1116 46.7297H33.3607V54.5573Z" fill="#EE4952"/>
</g>
<path d="M33.5514 53.5455H32.852C32.7399 53.5455 32.649 53.4068 32.649 53.2358V22.7186C32.649 22.5476 32.7399 22.4089 32.852 22.4089H33.5514C33.6635 22.4089 33.7543 22.5476 33.7543 22.7186V53.2356C33.7545 53.4068 33.6635 53.5455 33.5514 53.5455Z" fill="#D9D9D9"/>
<path d="M55.1515 53.7772H64.3449C65.0582 53.7772 65.6366 52.8948 65.6366 51.8064C65.6366 50.7181 65.0582 49.8357 64.3449 49.8357H55.1515V53.7772Z" fill="#C7E0E5"/>
<path d="M55.1515 53.7774H64.5503C65.1502 53.7774 65.6364 53.0353 65.6364 52.1201C65.6364 51.2048 65.15 50.4629 64.5503 50.4629H55.1515V53.7774Z" fill="#A7C1C9"/>
<path d="M64.6532 53.1072H56.7521" stroke="#8EA8AD" stroke-width="2" stroke-miterlimit="10"/>
<path d="M53.6324 59.5735C55.5207 59.5735 57.0515 57.2379 57.0515 54.3568C57.0515 51.4757 55.5207 49.1401 53.6324 49.1401C51.7441 49.1401 50.2134 51.4757 50.2134 54.3568C50.2134 57.2379 51.7441 59.5735 53.6324 59.5735Z" fill="#3D3E2C"/>
<path d="M53.6322 56.7226C54.4885 56.7226 55.1826 55.6635 55.1826 54.357C55.1826 53.0506 54.4885 51.9915 53.6322 51.9915C52.7759 51.9915 52.0818 53.0506 52.0818 54.357C52.0818 55.6635 52.7759 56.7226 53.6322 56.7226Z" fill="#ACBDBB"/>
<path d="M53.6913 53.3733C53.854 53.3733 53.9859 53.172 53.9859 52.9237C53.9859 52.6754 53.854 52.4741 53.6913 52.4741C53.5285 52.4741 53.3966 52.6754 53.3966 52.9237C53.3966 53.172 53.5285 53.3733 53.6913 53.3733Z" fill="#808E8C"/>
<path d="M53.6913 56.4204C53.854 56.4204 53.9859 56.2191 53.9859 55.9708C53.9859 55.7225 53.854 55.5212 53.6913 55.5212C53.5285 55.5212 53.3966 55.7225 53.3966 55.9708C53.3966 56.2191 53.5285 56.4204 53.6913 56.4204Z" fill="#808E8C"/>
<path d="M52.6926 54.897C52.8553 54.897 52.9873 54.6957 52.9873 54.4474C52.9873 54.1991 52.8553 53.9978 52.6926 53.9978C52.5299 53.9978 52.3979 54.1991 52.3979 54.4474C52.3979 54.6957 52.5299 54.897 52.6926 54.897Z" fill="#808E8C"/>
<path d="M54.6899 54.897C54.8527 54.897 54.9846 54.6957 54.9846 54.4474C54.9846 54.1991 54.8527 53.9978 54.6899 53.9978C54.5272 53.9978 54.3953 54.1991 54.3953 54.4474C54.3953 54.6957 54.5272 54.897 54.6899 54.897Z" fill="#808E8C"/>
<path d="M39.7872 20.474C39.8943 20.275 39.8376 19.9339 39.6606 19.7121C39.4836 19.4902 39.2533 19.4716 39.1462 19.6706C39.0391 19.8695 39.0958 20.2106 39.2727 20.4325C39.4497 20.6543 39.6801 20.6729 39.7872 20.474Z" fill="#FCF0FA"/>
<path d="M30.0521 25.8026C30.1592 25.6036 30.1025 25.2625 29.9255 25.0407C29.7485 24.8188 29.5182 24.8002 29.4111 24.9992C29.304 25.1981 29.3606 25.5392 29.5376 25.7611C29.7146 25.9829 29.9449 26.0015 30.0521 25.8026Z" fill="#FCF0FA"/>
<path opacity="0.51" d="M53.6306 35.3899V36.1232" stroke="white" stroke-width="2" stroke-miterlimit="10" stroke-linecap="round" stroke-linejoin="round"/>
<path opacity="0.51" d="M47.7375 31.5276H53.3077C53.4861 31.5276 53.6307 31.7482 53.6307 32.0203V34.7575" stroke="white" stroke-width="2" stroke-miterlimit="10" stroke-linecap="round" stroke-linejoin="round"/>
<path d="M66.3125 60.1612H12.6875C12.3079 60.1612 12 59.6917 12 59.1122C12 58.533 12.3078 58.0632 12.6875 58.0632H66.3125C66.6921 58.0632 67 58.5328 67 59.1122C67 59.6915 66.6921 60.1612 66.3125 60.1612Z" fill="#8EC0D6"/>
<path d="M64.3912 23.5174H33.7905V22.4692H63.7042C64.0836 22.4692 64.3912 22.9386 64.3912 23.5174Z" fill="#EAEAEA"/>
<path opacity="0.51" d="M46.0352 36.8889V38.059C46.0352 38.2772 46.1511 38.454 46.2941 38.454H47.301" stroke="white" stroke-width="2" stroke-miterlimit="10" stroke-linecap="round" stroke-linejoin="round"/>
<path opacity="0.51" d="M30.9826 34.8408L30.9534 36.2395" stroke="white" stroke-width="2" stroke-miterlimit="10" stroke-linecap="round" stroke-linejoin="round"/>
<path opacity="0.51" d="M28.6287 30.5449H30.8428C31.0095 30.5449 31.1422 30.7583 31.1334 31.0123L31.0218 34.2476" stroke="white" stroke-width="2" stroke-miterlimit="10" stroke-linecap="round" stroke-linejoin="round"/>
<path opacity="0.51" d="M27.6469 38.4375H28.3999" stroke="white" stroke-width="2" stroke-miterlimit="10" stroke-linecap="round" stroke-linejoin="round"/>
<path opacity="0.51" d="M26.5988 36.5393L26.0913 37.8766C25.9968 38.1258 26.1146 38.4375 26.3032 38.4375H27.2536" stroke="white" stroke-width="2" stroke-miterlimit="10" stroke-linecap="round" stroke-linejoin="round"/>
<path opacity="0.51" d="M25.3222 33.2188L25.1257 33.792" stroke="white" stroke-width="2" stroke-miterlimit="10" stroke-linecap="round" stroke-linejoin="round"/>
<path opacity="0.51" d="M25.1257 30.5449H25.9102C26.0597 30.5449 26.1559 30.7871 26.0866 30.9893L25.6142 32.3672" stroke="white" stroke-width="2" stroke-miterlimit="10" stroke-linecap="round" stroke-linejoin="round"/>
</svg>
