<svg width="53" height="41" viewBox="0 0 53 41" fill="none" xmlns="http://www.w3.org/2000/svg">
<path d="M50.3809 34.5455H20.7379C20.1363 34.5455 19.6484 33.8014 19.6484 32.8832V5.07092C19.6484 4.15299 20.1361 3.40869 20.7379 3.40869H50.3809C50.9825 3.40869 51.4703 4.15279 51.4703 5.07092V32.8832C51.4703 33.8012 50.9826 34.5455 50.3809 34.5455Z" fill="#FCF0FA"/>
<path d="M12.1479 10.0063L8.46195 19.3449C8.2697 19.8318 7.96012 20.1847 7.59946 20.3273L2.62159 22.2987C1.99351 22.5474 1.55493 23.4124 1.55493 24.4025V32.3718C1.55493 33.5722 2.1927 34.5453 2.9795 34.5453H6.89778H13.7358H18.234C19.0208 34.5453 19.6585 33.5722 19.6585 32.3718V10.7882C19.6585 9.54873 18.9803 8.56027 18.1689 8.61681L13.3034 8.95609C12.8273 8.98946 12.3937 9.38349 12.1479 10.0063Z" fill="#FCF0FA"/>
<path d="M40.7862 20.6345H33.0688C32.6343 20.6345 32.2821 20.0972 32.2821 19.4342V12.3289C32.2821 11.666 32.6343 11.1287 33.0688 11.1287H40.7862C41.2207 11.1287 41.5728 11.666 41.5728 12.3289V19.4342C41.5728 20.0972 41.2207 20.6345 40.7862 20.6345Z" fill="#C5D9DD"/>
<path d="M40.7595 20.0329H33.0942C32.8491 20.0329 32.6503 19.7296 32.6503 19.3555V12.4081C32.6503 12.034 32.8491 11.7307 33.0942 11.7307H40.7595C41.0046 11.7307 41.2034 12.034 41.2034 12.4081V19.3555C41.2034 19.7296 41.0048 20.0329 40.7595 20.0329Z" fill="#A6D2E5"/>
<path d="M40.7595 20.0329H33.0942C32.8491 20.0329 32.6503 19.7296 32.6503 19.3555V12.4081C32.6503 12.034 32.8491 11.7307 33.0942 11.7307H40.7595C41.0046 11.7307 41.2034 12.034 41.2034 12.4081V19.3555C41.2034 19.7296 41.0048 20.0329 40.7595 20.0329Z" stroke="#74A6B7" stroke-miterlimit="10"/>
<path d="M19.6622 32.227H4.36023V29.0572C4.36023 26.4848 5.72704 24.3994 7.41301 24.3994H19.6621V32.227H19.6622Z" fill="#CD0016"/>
<path d="M19.6622 32.2269H4.36023V31.1479C4.36023 29.1586 5.4172 27.5459 6.72102 27.5459H19.6622V32.2269Z" fill="#EE4952"/>
<path d="M19.6622 32.2269H4.36023C4.36023 31.73 4.62424 31.3274 4.94981 31.3274H19.6621V32.2269H19.6622Z" fill="#F7CC57"/>
<path d="M10.8484 34.7772H1.65493C0.941594 34.7772 0.363281 33.8948 0.363281 32.8064C0.363281 31.7181 0.941594 30.8357 1.65493 30.8357H10.8484V34.7772Z" fill="#C7E0E5"/>
<path d="M10.8484 34.7773H1.38541C0.820851 34.7773 0.363281 34.0791 0.363281 33.2177C0.363281 32.3563 0.820851 31.6582 1.38541 31.6582H10.8484V34.7773Z" fill="#A7C1C9"/>
<path d="M9.572 33.9075H1.23425" stroke="#8EA8AD" stroke-width="2" stroke-miterlimit="10"/>
<path d="M12.7263 40.5735C14.6146 40.5735 16.1454 38.2379 16.1454 35.3568C16.1454 32.4757 14.6146 30.1401 12.7263 30.1401C10.838 30.1401 9.30725 32.4757 9.30725 35.3568C9.30725 38.2379 10.838 40.5735 12.7263 40.5735Z" fill="#3D3E2C"/>
<path d="M12.726 37.7226C13.5822 37.7226 14.2764 36.6635 14.2764 35.357C14.2764 34.0506 13.5822 32.9915 12.726 32.9915C11.8697 32.9915 11.1755 34.0506 11.1755 35.357C11.1755 36.6635 11.8697 37.7226 12.726 37.7226Z" fill="#ACBDBB"/>
<path d="M12.7261 34.2737C12.8888 34.2737 13.0207 34.0724 13.0207 33.8241C13.0207 33.5758 12.8888 33.3745 12.7261 33.3745C12.5633 33.3745 12.4314 33.5758 12.4314 33.8241C12.4314 34.0724 12.5633 34.2737 12.7261 34.2737Z" fill="#808E8C"/>
<path d="M12.7261 37.3208C12.8888 37.3208 13.0207 37.1195 13.0207 36.8712C13.0207 36.6229 12.8888 36.4216 12.7261 36.4216C12.5633 36.4216 12.4314 36.6229 12.4314 36.8712C12.4314 37.1195 12.5633 37.3208 12.7261 37.3208Z" fill="#808E8C"/>
<path d="M11.7276 35.7971C11.8904 35.7971 12.0223 35.5958 12.0223 35.3475C12.0223 35.0992 11.8904 34.8979 11.7276 34.8979C11.5649 34.8979 11.433 35.0992 11.433 35.3475C11.433 35.5958 11.5649 35.7971 11.7276 35.7971Z" fill="#808E8C"/>
<path d="M13.7248 35.7971C13.8876 35.7971 14.0195 35.5958 14.0195 35.3475C14.0195 35.0992 13.8876 34.8979 13.7248 34.8979C13.5621 34.8979 13.4302 35.0992 13.4302 35.3475C13.4302 35.5958 13.5621 35.7971 13.7248 35.7971Z" fill="#808E8C"/>
<mask id="mask0_272_2767" style="mask-type:luminance" maskUnits="userSpaceOnUse" x="1" y="8" width="19" height="27">
<path d="M12.1479 10.0061L8.46195 19.3446C8.2697 19.8316 7.96012 20.1844 7.59946 20.3271L2.62159 22.2984C1.99351 22.5472 1.55493 23.4122 1.55493 24.4022V32.3715C1.55493 33.572 2.1927 34.5451 2.9795 34.5451H6.89778H13.7358H18.234C19.0208 34.5451 19.6585 33.572 19.6585 32.3715V10.7879C19.6585 9.54849 18.9803 8.56002 18.1689 8.61657L13.3034 8.95585C12.8273 8.98922 12.3937 9.38324 12.1479 10.0061Z" fill="white"/>
</mask>
<g mask="url(#mask0_272_2767)">
<path d="M1.70227 30.2115H-10.5029C-11.3581 30.2115 -12.0513 29.1539 -12.0513 27.8492C-12.0513 26.5444 -11.3581 25.4868 -10.5029 25.4868H1.70227C2.55743 25.4868 3.25059 26.5444 3.25059 27.8492C3.25059 29.1539 2.5573 30.2115 1.70227 30.2115Z" fill="#F7CC57"/>
</g>
<mask id="mask1_272_2767" style="mask-type:luminance" maskUnits="userSpaceOnUse" x="1" y="8" width="19" height="27">
<path d="M12.1479 10.0061L8.46195 19.3446C8.2697 19.8316 7.96012 20.1844 7.59946 20.3271L2.62159 22.2984C1.99351 22.5472 1.55493 23.4122 1.55493 24.4022V32.3715C1.55493 33.572 2.1927 34.5451 2.9795 34.5451H6.89778H13.7358H18.234C19.0208 34.5451 19.6585 33.572 19.6585 32.3715V10.7879C19.6585 9.54849 18.9803 8.56002 18.1689 8.61657L13.3034 8.95585C12.8273 8.98922 12.3937 9.38324 12.1479 10.0061Z" fill="white"/>
</mask>
<g mask="url(#mask1_272_2767)">
<path d="M1.71236 29.4176H-9.81488C-10.3826 29.4176 -10.8428 28.7155 -10.8428 27.8493C-10.8428 26.9831 -10.3826 26.281 -9.81488 26.281H1.71236C2.28007 26.281 2.74026 26.9831 2.74026 27.8493C2.74026 28.7153 2.28007 29.4176 1.71236 29.4176Z" fill="#FFEA50"/>
</g>
<mask id="mask2_272_2767" style="mask-type:luminance" maskUnits="userSpaceOnUse" x="1" y="8" width="19" height="27">
<path d="M12.1479 10.0061L8.46195 19.3446C8.2697 19.8316 7.96012 20.1844 7.59946 20.3271L2.62159 22.2984C1.99351 22.5472 1.55493 23.4122 1.55493 24.4022V32.3715C1.55493 33.572 2.1927 34.5451 2.9795 34.5451H6.89778H13.7358H18.234C19.0208 34.5451 19.6585 33.572 19.6585 32.3715V10.7879C19.6585 9.54849 18.9803 8.56002 18.1689 8.61657L13.3034 8.95585C12.8273 8.98922 12.3937 9.38324 12.1479 10.0061Z" fill="white"/>
</mask>
<g mask="url(#mask2_272_2767)">
<path d="M18.3149 19.5435L18.5755 11.5892C18.5878 11.2124 18.3909 10.8965 18.1436 10.8965H15.5225C15.3586 10.8965 15.209 11.0378 15.1356 11.2611L12.5289 19.2154C12.3851 19.6542 12.5942 20.1703 12.9157 20.1703H17.883C18.1135 20.1705 18.3035 19.8948 18.3149 19.5435Z" fill="#A6D2E5"/>
</g>
<mask id="mask3_272_2767" style="mask-type:luminance" maskUnits="userSpaceOnUse" x="1" y="8" width="19" height="27">
<path d="M12.1479 10.0061L8.46195 19.3446C8.2697 19.8316 7.96012 20.1844 7.59946 20.3271L2.62159 22.2984C1.99351 22.5472 1.55493 23.4122 1.55493 24.4022V32.3715C1.55493 33.572 2.1927 34.5451 2.9795 34.5451H6.89778H13.7358H18.234C19.0208 34.5451 19.6585 33.572 19.6585 32.3715V10.7879C19.6585 9.54849 18.9803 8.56002 18.1689 8.61657L13.3034 8.95585C12.8273 8.98922 12.3937 9.38324 12.1479 10.0061Z" fill="white"/>
</mask>
<g mask="url(#mask3_272_2767)">
<path d="M18.3149 19.5435L18.5755 11.5892C18.5878 11.2124 18.3909 10.8965 18.1436 10.8965H15.5225C15.3586 10.8965 15.209 11.0378 15.1356 11.2611L12.5289 19.2154C12.3851 19.6542 12.5942 20.1703 12.9157 20.1703H17.883C18.1135 20.1705 18.3035 19.8948 18.3149 19.5435Z" stroke="#74A6B7" stroke-miterlimit="10"/>
</g>
<mask id="mask4_272_2767" style="mask-type:luminance" maskUnits="userSpaceOnUse" x="1" y="8" width="19" height="27">
<path d="M12.1479 10.0061L8.46195 19.3446C8.2697 19.8316 7.96012 20.1844 7.59946 20.3271L2.62159 22.2984C1.99351 22.5472 1.55493 23.4122 1.55493 24.4022V32.3715C1.55493 33.572 2.1927 34.5451 2.9795 34.5451H6.89778H13.7358H18.234C19.0208 34.5451 19.6585 33.572 19.6585 32.3715V10.7879C19.6585 9.54849 18.9803 8.56002 18.1689 8.61657L13.3034 8.95585C12.8273 8.98922 12.3937 9.38324 12.1479 10.0061Z" fill="white"/>
</mask>
<g mask="url(#mask4_272_2767)">
<path d="M13.685 11.5145L11.0778 19.4706C11.0304 19.6152 10.9335 19.7068 10.8274 19.7068H5.5605C5.31665 19.7068 5.18936 19.264 5.35463 18.9902L10.1574 11.0342C10.2104 10.9464 10.2851 10.8965 10.3633 10.8965H13.4345C13.6427 10.8965 13.7782 11.2306 13.685 11.5145Z" fill="#A6D2E5"/>
</g>
<mask id="mask5_272_2767" style="mask-type:luminance" maskUnits="userSpaceOnUse" x="1" y="8" width="19" height="27">
<path d="M12.1479 10.0061L8.46195 19.3446C8.2697 19.8316 7.96012 20.1844 7.59946 20.3271L2.62159 22.2984C1.99351 22.5472 1.55493 23.4122 1.55493 24.4022V32.3715C1.55493 33.572 2.1927 34.5451 2.9795 34.5451H6.89778H13.7358H18.234C19.0208 34.5451 19.6585 33.572 19.6585 32.3715V10.7879C19.6585 9.54849 18.9803 8.56002 18.1689 8.61657L13.3034 8.95585C12.8273 8.98922 12.3937 9.38324 12.1479 10.0061Z" fill="white"/>
</mask>
<g mask="url(#mask5_272_2767)">
<path d="M13.685 11.5145L11.0778 19.4706C11.0304 19.6152 10.9335 19.7068 10.8274 19.7068H5.5605C5.31665 19.7068 5.18936 19.264 5.35463 18.9902L10.1574 11.0342C10.2104 10.9464 10.2851 10.8965 10.3633 10.8965H13.4345C13.6427 10.8965 13.7782 11.2306 13.685 11.5145Z" stroke="#74A6B7" stroke-miterlimit="10"/>
</g>
<path d="M10.9457 21.0981C10.7241 21.0981 10.5444 20.824 10.5444 20.4859V15.9142C10.5444 15.5761 10.7241 15.302 10.9457 15.302C11.1673 15.302 11.3469 15.5761 11.3469 15.9142V20.4859C11.3469 20.824 11.1673 21.0981 10.9457 21.0981Z" fill="#3D3E2C"/>
<path d="M27.8671 10.8298H25.4369V19.6647H27.8671V10.8298Z" fill="#EE4952"/>
<path d="M23.7566 13.3934V17.1013H29.5471V13.3934H23.7566Z" fill="#EE4952"/>
<path d="M49.4533 13.3934H47.7731V10.8298H45.343V13.3934H43.6628V17.1013H45.343V19.6649H47.7731V17.1013H49.4533V13.3934Z" fill="#EE4952"/>
<path d="M17.5348 8.77849H15.1035V7.15563C15.1035 6.1312 15.6478 5.30078 16.3192 5.30078C16.9906 5.30078 17.5349 6.1312 17.5349 7.15563V8.77849H17.5348Z" fill="#305AFF"/>
<path d="M17.1173 8.78098H15.5204V7.41966C15.5204 6.7469 15.8779 6.20142 16.3188 6.20142C16.7598 6.20142 17.1173 6.7469 17.1173 7.41966V8.78098Z" fill="#204BD1"/>
<path d="M27.2601 3.47771H24.8289V1.85485C24.8289 0.830416 25.3731 0 26.0445 0C26.716 0 27.2602 0.830416 27.2602 1.85485L27.2601 3.47771Z" fill="#EE4952"/>
<path d="M26.9424 3.42389H25.1454V2.22442C25.1454 1.46734 25.5477 0.853516 26.0439 0.853516C26.5401 0.853516 26.9424 1.46734 26.9424 2.22442V3.42389Z" fill="#CD0016"/>
<mask id="mask6_272_2767" style="mask-type:luminance" maskUnits="userSpaceOnUse" x="19" y="3" width="33" height="32">
<path d="M50.3809 34.5455H20.7379C20.1363 34.5455 19.6484 33.8014 19.6484 32.8832V5.07092C19.6484 4.15299 20.1361 3.40869 20.7379 3.40869H50.3809C50.9825 3.40869 51.4703 4.15279 51.4703 5.07092V32.8832C51.4703 33.8012 50.9826 34.5455 50.3809 34.5455Z" fill="white"/>
</mask>
<g mask="url(#mask6_272_2767)">
<path d="M51.5056 24.3994H19.6143V32.227H51.5056V24.3994Z" fill="#CD0016"/>
</g>
<mask id="mask7_272_2767" style="mask-type:luminance" maskUnits="userSpaceOnUse" x="19" y="3" width="33" height="32">
<path d="M50.3809 34.5455H20.7379C20.1363 34.5455 19.6484 33.8014 19.6484 32.8832V5.07092C19.6484 4.15299 20.1361 3.40869 20.7379 3.40869H50.3809C50.9825 3.40869 51.4703 4.15279 51.4703 5.07092V32.8832C51.4703 33.8012 50.9826 34.5455 50.3809 34.5455Z" fill="white"/>
</mask>
<g mask="url(#mask7_272_2767)">
<path d="M52.204 27.5266H20.3127V32.2076H52.204V27.5266Z" fill="#EE4952"/>
</g>
<mask id="mask8_272_2767" style="mask-type:luminance" maskUnits="userSpaceOnUse" x="19" y="3" width="33" height="32">
<path d="M50.3809 34.5455H20.7379C20.1363 34.5455 19.6484 33.8014 19.6484 32.8832V5.07092C19.6484 4.15299 20.1361 3.40869 20.7379 3.40869H50.3809C50.9825 3.40869 51.4703 4.15279 51.4703 5.07092V32.8832C51.4703 33.8012 50.9826 34.5455 50.3809 34.5455Z" fill="white"/>
</mask>
<g mask="url(#mask8_272_2767)">
<path d="M52.204 31.2827H20.3127V32.2074H52.204V31.2827Z" fill="#F7CC57"/>
</g>
<mask id="mask9_272_2767" style="mask-type:luminance" maskUnits="userSpaceOnUse" x="19" y="3" width="33" height="32">
<path d="M50.3809 34.5455H20.7379C20.1363 34.5455 19.6484 33.8014 19.6484 32.8832V5.07092C19.6484 4.15299 20.1361 3.40869 20.7379 3.40869H50.3809C50.9825 3.40869 51.4703 4.15279 51.4703 5.07092V32.8832C51.4703 33.8012 50.9826 34.5455 50.3809 34.5455Z" fill="white"/>
</mask>
<g mask="url(#mask9_272_2767)">
<path d="M63.2313 29.9801H51.0261C50.1709 29.9801 49.4778 28.9225 49.4778 27.6177C49.4778 26.313 50.1709 25.2554 51.0261 25.2554H63.2313C64.0865 25.2554 64.7796 26.313 64.7796 27.6177C64.7798 28.9225 64.0865 29.9801 63.2313 29.9801Z" fill="#F7CC57"/>
</g>
<mask id="mask10_272_2767" style="mask-type:luminance" maskUnits="userSpaceOnUse" x="19" y="3" width="33" height="32">
<path d="M50.3809 34.5455H20.7379C20.1363 34.5455 19.6484 33.8014 19.6484 32.8832V5.07092C19.6484 4.15299 20.1361 3.40869 20.7379 3.40869H50.3809C50.9825 3.40869 51.4703 4.15279 51.4703 5.07092V32.8832C51.4703 33.8012 50.9826 34.5455 50.3809 34.5455Z" fill="white"/>
</mask>
<g mask="url(#mask10_272_2767)">
<path d="M62.9399 29.2868H51.3183C50.7142 29.2868 50.2244 28.5395 50.2244 27.6178C50.2244 26.696 50.7142 25.9487 51.3183 25.9487H62.9399C63.544 25.9487 64.0338 26.696 64.0338 27.6178C64.034 28.5395 63.5442 29.2868 62.9399 29.2868Z" fill="#FFEA50"/>
</g>
<mask id="mask11_272_2767" style="mask-type:luminance" maskUnits="userSpaceOnUse" x="19" y="3" width="33" height="32">
<path d="M50.3809 34.5455H20.7379C20.1363 34.5455 19.6484 33.8014 19.6484 32.8832V5.07092C19.6484 4.15299 20.1361 3.40869 20.7379 3.40869H50.3809C50.9825 3.40869 51.4703 4.15279 51.4703 5.07092V32.8832C51.4703 33.8012 50.9826 34.5455 50.3809 34.5455Z" fill="white"/>
</mask>
<g mask="url(#mask11_272_2767)">
<path d="M64.0975 9.31799H51.8923C51.0372 9.31799 50.344 8.26039 50.344 6.95563C50.344 5.65086 51.0372 4.59326 51.8923 4.59326H64.0975C64.9527 4.59326 65.6459 5.65086 65.6459 6.95563C65.646 8.26039 64.9527 9.31799 64.0975 9.31799Z" fill="#F7CC57"/>
</g>
<mask id="mask12_272_2767" style="mask-type:luminance" maskUnits="userSpaceOnUse" x="19" y="3" width="33" height="32">
<path d="M50.3809 34.5455H20.7379C20.1363 34.5455 19.6484 33.8014 19.6484 32.8832V5.07092C19.6484 4.15299 20.1361 3.40869 20.7379 3.40869H50.3809C50.9825 3.40869 51.4703 4.15279 51.4703 5.07092V32.8832C51.4703 33.8012 50.9826 34.5455 50.3809 34.5455Z" fill="white"/>
</mask>
<g mask="url(#mask12_272_2767)">
<path d="M20.3607 35.5573H5.05884V32.3875C5.05884 29.8152 6.42565 27.7297 8.11161 27.7297H20.3607V35.5573Z" fill="#EE4952"/>
</g>
<path d="M20.5514 34.5455H19.852C19.7399 34.5455 19.649 34.4068 19.649 34.2358V3.71864C19.649 3.54761 19.7399 3.40894 19.852 3.40894H20.5514C20.6635 3.40894 20.7543 3.54761 20.7543 3.71864V34.2356C20.7545 34.4068 20.6635 34.5455 20.5514 34.5455Z" fill="#D9D9D9"/>
<path d="M42.1515 34.7772H51.3449C52.0582 34.7772 52.6366 33.8948 52.6366 32.8064C52.6366 31.7181 52.0582 30.8357 51.3449 30.8357H42.1515V34.7772Z" fill="#C7E0E5"/>
<path d="M42.1515 34.7774H51.5503C52.1502 34.7774 52.6364 34.0353 52.6364 33.1201C52.6364 32.2048 52.15 31.4629 51.5503 31.4629H42.1515V34.7774Z" fill="#A7C1C9"/>
<path d="M51.6532 34.1072H43.7521" stroke="#8EA8AD" stroke-width="2" stroke-miterlimit="10"/>
<path d="M40.6324 40.5735C42.5207 40.5735 44.0515 38.2379 44.0515 35.3568C44.0515 32.4757 42.5207 30.1401 40.6324 30.1401C38.7441 30.1401 37.2134 32.4757 37.2134 35.3568C37.2134 38.2379 38.7441 40.5735 40.6324 40.5735Z" fill="#3D3E2C"/>
<path d="M40.6322 37.7226C41.4885 37.7226 42.1826 36.6635 42.1826 35.357C42.1826 34.0506 41.4885 32.9915 40.6322 32.9915C39.7759 32.9915 39.0818 34.0506 39.0818 35.357C39.0818 36.6635 39.7759 37.7226 40.6322 37.7226Z" fill="#ACBDBB"/>
<path d="M40.6913 34.3733C40.854 34.3733 40.9859 34.172 40.9859 33.9237C40.9859 33.6754 40.854 33.4741 40.6913 33.4741C40.5285 33.4741 40.3966 33.6754 40.3966 33.9237C40.3966 34.172 40.5285 34.3733 40.6913 34.3733Z" fill="#808E8C"/>
<path d="M40.6913 37.4204C40.854 37.4204 40.9859 37.2191 40.9859 36.9708C40.9859 36.7225 40.854 36.5212 40.6913 36.5212C40.5285 36.5212 40.3966 36.7225 40.3966 36.9708C40.3966 37.2191 40.5285 37.4204 40.6913 37.4204Z" fill="#808E8C"/>
<path d="M39.6926 35.897C39.8553 35.897 39.9873 35.6957 39.9873 35.4474C39.9873 35.1991 39.8553 34.9978 39.6926 34.9978C39.5299 34.9978 39.3979 35.1991 39.3979 35.4474C39.3979 35.6957 39.5299 35.897 39.6926 35.897Z" fill="#808E8C"/>
<path d="M41.6899 35.897C41.8527 35.897 41.9846 35.6957 41.9846 35.4474C41.9846 35.1991 41.8527 34.9978 41.6899 34.9978C41.5272 34.9978 41.3953 35.1991 41.3953 35.4474C41.3953 35.6957 41.5272 35.897 41.6899 35.897Z" fill="#808E8C"/>
<path d="M26.7872 1.47397C26.8943 1.27503 26.8376 0.933917 26.6606 0.712063C26.4836 0.490208 26.2533 0.471628 26.1462 0.670562C26.0391 0.869495 26.0958 1.21061 26.2727 1.43247C26.4497 1.65432 26.6801 1.6729 26.7872 1.47397Z" fill="#FCF0FA"/>
<path d="M17.0521 6.80258C17.1592 6.60365 17.1025 6.26253 16.9255 6.04068C16.7485 5.81882 16.5182 5.80024 16.4111 5.99917C16.304 6.19811 16.3606 6.53922 16.5376 6.76108C16.7146 6.98293 16.9449 7.00151 17.0521 6.80258Z" fill="#FCF0FA"/>
<path opacity="0.51" d="M40.6306 16.3899V17.1232" stroke="white" stroke-width="2" stroke-miterlimit="10" stroke-linecap="round" stroke-linejoin="round"/>
<path opacity="0.51" d="M34.7375 12.5276H40.3077C40.4861 12.5276 40.6307 12.7482 40.6307 13.0203V15.7575" stroke="white" stroke-width="2" stroke-miterlimit="10" stroke-linecap="round" stroke-linejoin="round"/>
</svg>
